<svg width="87" height="41" viewBox="0 0 87 41" fill="none" xmlns="http://www.w3.org/2000/svg">
<path d="M43.8828 10.7568L52.002 0H60.6689V3.28906C60.6689 4.88063 60.5094 18.4768 60.5322 25.0771C60.5372 26.516 60.9648 28.457 61.8418 29.2793C56.196 25.6068 53.1855 21.0004 53.1855 18.2598C53.2123 13.9713 53.1865 7.5588 53.167 3.11719L45.4365 12.8896C48.1708 17.4121 54.6032 26.8243 57.1748 29.5312C61.485 34.0683 70.1511 34.6907 74.5781 30.7646C79.7959 26.1367 78.2671 18.8365 74.6475 15.8955C73.8547 15.2514 73.0071 14.7428 72.1846 14.3545C70.9279 13.7898 69.4442 13.3859 68.1211 13.4297L74.5068 6.51758C72.1837 6.51759 68.3578 6.59959 67.042 6.59961C64.9867 6.59968 63.5475 8.0381 62.3828 9.33984V0H81.9102V4.24805L79.583 6.51758L73.8252 12.4697L73.4629 12.8311C75.6453 12.925 78.3016 13.6676 80.9502 15.5537C85.2073 18.5853 89.4948 29.7095 81.6152 36.6982C74.9299 42.6275 59.4358 42.0694 52.9268 35.2178C49.2887 31.388 41.7077 18.8192 37.3818 11.6328V25.626C37.382 26.6537 37.7933 28.2296 39.0264 29.0518H28.877C29.5621 28.5721 30.0691 27.4342 30.1787 25.0771C30.2883 22.7195 30.0877 9.88927 30.042 3.76855C30.0362 2.98688 29.8364 1.57595 29.2197 0.822266C28.7289 0.222391 28.4433 0.0456756 28.3291 0H37.3047L43.8828 10.7568ZM37.3818 10.4102L37.4043 10.417L37.3818 10.3809V10.4102ZM12.0508 0.0498047C12.012 0.0885618 11.6952 0.224285 11.6436 0.635742L11.3594 3.8457H15.0322L14.8232 0.635742C14.8232 0.441217 14.5821 0.125646 14.416 0.0498047H17.71C17.6705 0.0889951 17.3027 0.326757 17.3027 0.935547V8.9082C17.3031 9.13064 17.71 9.49414 17.71 9.49414H14.416C14.4646 9.4456 14.823 9.19414 14.8232 8.9082L15.0322 5.61914H11.3594L11.4932 8.83105C11.4937 9.04473 11.8613 9.5175 11.9004 9.56641L8.60645 9.49414C8.65505 9.44564 9.01346 9.26898 9.01367 8.9082V0.557617C8.99004 0.186888 8.65192 0.0861432 8.60645 0.0498047H12.0508ZM8.05273 2.20703C8.00651 2.11788 7.89047 1.82328 7.61621 1.82324H5.11621V8.9082C5.11636 9.04473 5.21438 9.41926 5.52344 9.49414H2.5293C2.81566 9.41918 2.93638 9.09045 2.93652 8.9082V1.82324H0.436523C0.154047 1.82324 0.0387907 2.17219 0 2.23047V0.0498047H8.05273V2.20703ZM25.3604 2.59863C25.3604 2.59863 24.4867 2.07599 24.0254 1.99902C23.5764 1.92419 22.9803 1.91507 22.9014 1.91504H21.3076V3.93457L23.4111 3.87109C23.5564 3.87108 23.8749 3.79807 24.0215 3.64844V5.80371C23.8002 5.67168 23.5756 5.59673 23.4258 5.59668L21.3076 5.46973V8.02051L23.2754 7.99512C23.5753 7.99508 25.2248 7.69476 25.3604 7.28418V9.49414H18.4209C18.8538 9.41911 18.9774 9.07651 18.9775 8.9082L18.9287 0.875C18.9286 0.72496 18.7041 0.200814 18.2549 0.0507812L25.3604 0.0498047V2.59863Z" fill="#25402D"/>
</svg>
