<svg width="937" height="411" viewBox="0 0 937 411" fill="none" xmlns="http://www.w3.org/2000/svg">
<path d="M0 156L8.92254 77.9278H35.1325L44.055 156H26.7676L25.8754 141.389L25.5408 130.236L22.864 93.5422H21.191L18.5143 130.236L18.1797 141.389L17.2874 156H0ZM16.2836 143.174L16.8413 128.675H27.2137L27.7714 143.174H16.2836ZM47.3487 156V77.9278H64.0785C68.7628 77.9278 72.8151 78.6713 76.2354 80.1584C79.6557 81.6455 82.2953 83.7646 84.1542 86.5157C86.013 89.2668 86.9425 92.5384 86.9425 96.3305C86.9425 101.981 84.9721 106.368 81.0313 109.491C77.0905 112.614 71.4396 114.176 64.0785 114.176H62.294V106.926H64.6361C66.495 106.926 67.8705 106.257 68.7628 104.918C69.7294 103.506 70.2127 101.387 70.2127 98.5612C70.2127 95.81 69.7294 93.7281 68.7628 92.3154C67.8705 90.9026 66.495 90.1963 64.6361 90.1963H64.0785V143.732H64.6361C66.8668 143.732 68.5397 142.839 69.655 141.055C70.7704 139.27 71.328 136.631 71.328 133.136C71.328 129.864 70.7332 127.374 69.5435 125.663C68.4282 123.953 66.7924 123.098 64.6361 123.098H62.294V115.849H64.0785C71.5883 115.849 77.4623 117.522 81.7005 120.868C85.9387 124.213 88.0578 129.046 88.0578 135.367C88.0578 141.761 85.9015 146.817 81.5889 150.535C77.3507 154.178 71.5139 156 64.0785 156H47.3487ZM112.081 157.673C107.545 157.673 103.679 156.112 100.481 152.989C97.3585 149.791 94.9791 145.181 93.3433 139.159C91.7075 133.062 90.8896 125.663 90.8896 116.964C90.8896 108.264 91.7075 100.903 93.3433 94.8806C94.9791 88.7835 97.3585 84.1736 100.481 81.0507C103.679 77.8534 107.545 76.2548 112.081 76.2548C116.616 76.2548 120.446 77.8534 123.568 81.0507C126.766 84.1736 129.182 88.7835 130.818 94.8806C132.454 100.903 133.272 108.264 133.272 116.964C133.272 125.663 132.454 133.062 130.818 139.159C129.182 145.181 126.766 149.791 123.568 152.989C120.446 156.112 116.616 157.673 112.081 157.673ZM112.081 144.289C113.345 144.289 114.2 142.244 114.646 138.155C115.166 134.065 115.427 127.002 115.427 116.964C115.427 106.926 115.166 99.8624 114.646 95.7729C114.2 91.6834 113.345 89.6386 112.081 89.6386C110.817 89.6386 109.924 91.6834 109.404 95.7729C108.958 99.8624 108.735 106.926 108.735 116.964C108.735 127.002 108.958 134.065 109.404 138.155C109.924 142.244 110.817 144.289 112.081 144.289ZM158.358 157.673C154.417 157.673 150.959 156.558 147.985 154.327C145.085 152.022 142.818 148.788 141.182 144.624C139.62 140.386 138.84 135.441 138.84 129.79V77.9278H155.569V133.694C155.569 137.486 155.792 140.2 156.239 141.835C156.685 143.471 157.391 144.289 158.358 144.289C159.324 144.289 160.031 143.471 160.477 141.835C160.923 140.2 161.146 137.486 161.146 133.694V77.9278H177.876V129.79C177.876 138.341 176.091 145.144 172.522 150.2C169.027 155.182 164.306 157.673 158.358 157.673ZM192.976 156V92.4269H180.708V77.9278H221.974V92.4269H209.706V156H192.976Z" fill="#25402D" fill-opacity="0.46"/>
<path d="M592.506 165.509L658.89 77.5571H729.756V104.447C729.756 117.451 728.449 228.625 728.636 282.591C728.677 294.356 732.169 310.224 739.339 316.947C693.179 286.92 668.568 249.259 668.568 226.851C668.787 191.788 668.573 139.362 668.414 103.046L605.211 182.956C627.568 219.933 680.159 296.885 701.184 319.016C736.426 356.112 807.28 361.202 843.475 329.099C886.136 291.261 873.63 231.582 844.036 207.536C837.337 202.093 830.166 197.826 823.23 194.613C813.102 190.154 801.262 187.007 790.681 187.357L842.894 130.841C823.899 130.841 792.612 131.512 781.855 131.512C765.049 131.512 753.285 143.277 743.761 153.92V77.5571H903.419V112.286L884.392 130.841L837.315 179.514L834.35 182.478C852.195 183.245 873.917 189.311 895.575 204.734C930.381 229.521 965.431 320.473 901.008 377.614C846.349 426.093 719.67 421.533 666.451 365.513C636.708 334.206 574.728 231.453 539.358 172.693V287.074C539.358 295.477 542.719 308.361 552.802 315.083H469.822C475.424 311.162 479.569 301.862 480.465 282.591C481.362 263.319 479.719 158.413 479.345 108.369C479.298 101.978 477.664 90.4421 472.623 84.2798C468.61 79.3754 466.274 77.9309 465.34 77.5571H538.727L592.506 165.509ZM539.358 162.684L539.555 162.744L539.358 162.428V162.684ZM332.242 77.9771C331.925 78.294 329.337 79.4036 328.915 82.7681L326.591 109.016H356.617L354.91 82.7681C354.91 81.1776 352.94 78.5971 351.583 77.9771H378.516C378.198 78.2946 375.186 80.236 375.186 85.2183V150.401C375.186 152.216 378.502 155.181 378.514 155.192H351.583C351.979 154.796 354.91 152.74 354.91 150.401L356.617 123.514H326.591L327.689 149.769C327.689 151.515 330.698 155.387 331.016 155.785L304.084 155.192C304.481 154.796 307.412 153.353 307.412 150.401V82.7681C307.596 79.2101 304.481 78.294 304.084 77.9771H332.242ZM299.551 95.6167C299.174 94.8885 298.229 92.4751 295.986 92.4751H275.546V150.401C275.546 151.515 276.345 154.579 278.874 155.192H254.393C256.736 154.579 257.72 151.891 257.72 150.401V92.4751H237.281C234.971 92.4751 234.032 95.3264 233.715 95.8022V77.9771H299.551V95.6167ZM441.059 98.8179C440.993 98.7786 433.901 94.5412 430.147 93.9155C426.47 93.3028 421.589 93.2251 420.956 93.2251H407.926V109.739L425.128 109.216C426.317 109.216 428.921 108.622 430.119 107.397V125.022C428.308 123.941 426.47 123.329 425.245 123.329L407.926 122.289V143.145L424.019 142.937C426.47 142.937 439.95 140.485 441.059 137.128V155.192H384.322C387.866 154.579 388.875 151.776 388.875 150.401L388.479 84.7241C388.479 83.498 386.64 79.2093 382.964 77.9839L441.059 77.9771V98.8179Z" fill="#243F2C"/>
</svg>
