<svg width="48" height="48" viewBox="0 0 48 48" fill="none" xmlns="http://www.w3.org/2000/svg">
<path d="M14.7827 21.9908C15.6708 18.6772 19.0768 15.2711 22.3904 14.3831L43.0488 8.84684C46.3624 7.95883 48.3288 9.92516 47.4408 13.2388L41.9045 33.8972C41.0165 37.2108 37.6104 40.6169 34.2968 41.5049L13.6384 47.0411C10.3248 47.9291 8.35849 45.9628 9.2465 42.6492L14.7827 21.9908Z" fill="#9E77ED"/>
<path d="M6.50076 13.7085C7.38877 10.3949 10.7948 6.98887 14.1084 6.10086L34.7669 0.564611C38.0805 -0.323397 40.0468 1.64293 39.1588 4.95652L33.6226 25.615C32.7345 28.9285 29.3285 32.3346 26.0149 33.2226L5.35643 38.7589C2.04283 39.6469 0.0765071 37.6806 0.964516 34.367L6.50076 13.7085Z" fill="#6941C6"/>
</svg>
