<svg width="130" height="130" viewBox="0 0 130 130" fill="none" xmlns="http://www.w3.org/2000/svg">
<path d="M63.9983 32.9302C63.9577 32.9707 63.6265 33.1129 63.5725 33.5435L63.2747 36.9019H67.1174L66.8987 33.5435C66.8987 33.34 66.6467 33.0095 66.4729 32.9302H69.9192C69.8778 32.9712 69.4934 33.2201 69.4934 33.8569V42.1978C69.4939 42.4292 69.9144 42.8058 69.9192 42.8101H66.4729C66.524 42.7591 66.8983 42.4967 66.8987 42.1978L67.1174 38.7573H63.2747L63.4153 42.1167C63.4156 42.3401 63.8001 42.835 63.8411 42.8862L60.3948 42.8101C60.4454 42.7594 60.8203 42.5752 60.8206 42.1978V33.4614C60.7959 33.0734 60.4423 32.9682 60.3948 32.9302H63.9983ZM59.8157 32.9302V35.187C59.7673 35.0937 59.6462 34.7859 59.3596 34.7856H56.7434V42.1978C56.7435 42.3405 56.8462 42.7315 57.1692 42.8101H54.0374C54.3368 42.7315 54.463 42.3884 54.4631 42.1978V34.7856H51.8469C51.5516 34.786 51.4314 35.1506 51.3909 35.2114V32.9302H59.8157ZM77.9221 35.5972C77.9221 35.5972 77.0082 35.0497 76.5256 34.9692C76.0553 34.8909 75.4311 34.8814 75.3499 34.8813H73.6829V36.9946L75.884 36.9272C76.0362 36.9271 76.3696 36.8515 76.5227 36.6948V38.9497C76.291 38.8114 76.0555 38.7329 75.8987 38.7329L73.6829 38.6001V41.269L75.7415 41.2417C76.0551 41.2417 77.7803 40.9281 77.9221 40.4985V42.8101H70.6624C71.1154 42.7317 71.2442 42.3739 71.2444 42.1978L71.1946 33.7935C71.1946 33.6366 70.9589 33.088 70.4885 32.9312L77.9221 32.9302V35.5972Z" fill="#DAA765"/>
<path d="M51.0732 58.2461L59.5674 46.9922H68.6348V50.4326C68.6348 52.0967 68.4683 66.3231 68.4922 73.2285C68.4975 74.7338 68.9439 76.7639 69.8613 77.624C63.9547 73.7819 60.8057 68.963 60.8057 66.0957C60.8337 61.6091 60.8065 54.9008 60.7861 50.2539L52.6992 60.4766C55.5599 65.2081 62.2891 75.0547 64.9795 77.8867C69.489 82.6335 78.5551 83.2847 83.1865 79.1768C88.6453 74.3351 87.0456 66.6991 83.2588 63.6221C82.4132 62.935 81.5082 62.3955 80.6318 61.9863C79.328 61.4074 77.7972 60.9968 76.4307 61.042L83.1123 53.8105C80.6817 53.8105 76.6782 53.8955 75.3018 53.8955C73.1513 53.8955 71.6454 55.4017 70.4268 56.7637V46.9922H90.8564V51.4355L88.4219 53.8105L82.3984 60.0381L82.0195 60.416C84.3029 60.5143 87.0824 61.2903 89.8535 63.2637C94.3072 66.4354 98.0969 78.3095 89.8535 85.6211C82.8595 91.8245 67.3451 91.005 60.5352 83.8369C56.729 79.8304 48.7972 66.6796 44.2715 59.1611V73.8018C44.2715 74.877 44.702 76.5256 45.9922 77.3857H35.374C36.0908 76.884 36.6216 75.6942 36.7363 73.2285C36.851 70.7626 36.6406 57.3382 36.5928 50.9346C36.5866 50.1168 36.3775 48.641 35.7324 47.8525C35.2189 47.2249 34.9203 47.04 34.8008 46.9922H44.1914L51.0732 58.2461ZM44.2715 57.8818L44.2939 57.8896L44.2715 57.8525V57.8818Z" fill="#DAA765"/>
<path d="M65 0C100.899 0 130 29.1015 130 65C130 100.899 100.899 130 65 130C29.1015 130 0 100.899 0 65C0 29.1015 29.1015 0 65 0ZM65 1.72461C30.0542 1.72466 1.72466 30.0542 1.72461 65C1.72461 99.9458 30.0542 128.275 65 128.275C99.9458 128.275 128.275 99.9458 128.275 65C128.275 30.0542 99.9458 1.72461 65 1.72461ZM64.7646 126.55L62.8047 126.629L61.001 124.59V122.395L64.7646 126.55ZM68.8418 124.59L67.0381 126.629L65.0781 126.55L68.8418 122.395V124.59ZM70.6182 115.435L76.4209 120.453L76.4824 120.507L76.4268 120.566L70.7812 126.604L70.7578 126.628H69.7832V115.416H70.5957L70.6182 115.435ZM62.1768 126.551L61.001 126.472V125.296L62.1768 126.551ZM68.8418 126.472L67.666 126.551L68.8418 125.296V126.472ZM59.9668 115.277L59.7715 126.487L58.7969 126.471L58.7734 126.445L53.2344 120.311L53.1797 120.25L53.2422 120.197L59.1318 115.281L59.1543 115.263L59.9668 115.277ZM80.1328 119.964L74.252 126.314H72.3701L77.7803 120.355L71.4297 115.338L74.0957 115.259L80.1328 119.964ZM58.3223 115.17L51.8838 120.077L57.1885 126.13L55.3076 126.097L49.5391 119.644L55.6572 115.046L58.3223 115.17ZM83.7393 119.336L78.0156 125.688H76.1338L81.3877 119.729L75.1934 114.867L77.7021 114.632L83.7393 119.336ZM54.5674 114.635L48.2891 119.388L53.4365 125.438L51.5557 125.404L45.9434 118.954L52.0625 114.355L54.5674 114.635ZM85.3857 120.748L82.4062 124.276L79.9756 125.139L84.3662 119.964L85.3857 120.748ZM68.998 120.591L65.0781 125.061L61.3145 120.905V120.277L64.9209 116.671L68.998 120.591ZM49.6055 124.82L47.1895 123.916L44.2725 120.336L45.3057 119.57L49.6055 124.82ZM70.8809 124.553L71.0166 124.408L74.3887 120.802L74.4473 120.738L74.3789 120.686L71.0068 118.098L70.8809 118.001V124.553ZM58.6973 117.938L55.2803 120.466L55.2109 120.518L55.2686 120.582L58.5771 124.246L58.7109 124.394L58.8252 117.843L58.6973 117.938ZM87.2676 122.238L86.4834 122.943L83.4258 124.041L86.0918 121.375L87.2676 122.238ZM46.1758 123.663L43.1367 122.512L42.3652 121.793L43.5566 120.951L46.1758 123.663ZM62.8047 120.748L65.0781 123.022L67.3516 120.592L64.9209 118.239L62.8047 120.748ZM90.4043 121.454L88.9922 122.081L78.8779 114.24L80.3682 113.77L90.4043 121.454ZM66.0977 120.748L65 121.846L63.9805 120.748L65 119.572L66.0977 120.748ZM50.8926 113.942L40.6436 121.606L39.2432 120.954L49.4121 113.447L50.8926 113.942ZM93.7754 113.691C93.399 115.698 92.469 119.127 92.0508 120.591L91.0312 120.67L92.5205 114.318L87.5811 112.516L86.876 116.044L89.3066 117.69L89.9336 116.044L88.0518 115.495L88.2871 113.691L91.4229 114.867L89.9336 119.964L84.8369 116.278L86.0127 111.967L87.8945 111.183L92.835 112.829L93.4619 107.889L95.0303 107.026C94.7689 108.412 94.1517 111.684 93.7754 113.691ZM36.4229 107.339L36.9639 112.288L41.9307 110.729L43.7988 111.545L44.9004 115.878L39.7402 119.474L38.3389 114.352L41.4961 113.23L41.6992 115.037L39.8086 115.554L40.4062 117.211L42.8652 115.606L42.2207 112.066L37.251 113.784L38.6299 120.159L37.6123 120.063C37.2198 118.593 36.3491 115.148 36.0078 113.135C35.6666 111.121 35.1073 107.839 34.8701 106.449L36.4229 107.339ZM104.831 105.458L111.025 105.537L110.085 106.713H104.831L104.596 112.123L103.263 113.534L103.498 106.87H97.3828L96.2852 113.456L100.519 113.691V112.672L97.7744 112.201L98.2451 107.811H102.322L101.852 114.476L100.832 115.416L95.9707 114.867L95.2656 119.102L93.7754 119.964V119.65L96.2061 106.321L96.6768 105.693L103.576 105.537V101.695H104.753L104.831 105.458ZM26.418 100.969L26.3516 104.81L33.2471 105.087L33.707 105.723L35.9043 119.092L35.8984 119.405L34.4238 118.518L33.793 114.271L28.9229 114.735L27.9199 113.777L27.5654 107.105L31.6416 107.176L32.0361 111.574L29.2842 111.997L29.2656 113.017L33.5029 112.855L32.5205 106.251L26.4062 106.145L26.5254 112.812L25.2168 111.377L25.0762 105.964L19.8232 105.872L18.9033 104.68L25.0977 104.709L25.2422 100.948L26.418 100.969ZM61.001 118.866V117.377L62.4912 115.73H63.9023L61.001 118.866ZM68.8418 117.377V118.866L65.9404 115.73H67.3516L68.8418 117.377ZM98.7939 116.278L97.3828 117.455C97.0065 117.769 96.4414 118.317 96.2061 118.553L96.2852 118.239L96.5986 116.044L98.7939 116.278ZM33.4199 117.638L33.4932 117.952C33.262 117.713 32.7067 117.154 32.3359 116.834L30.9453 115.633L33.1445 115.438L33.4199 117.638ZM61.001 116.436V115.651H61.8633L61.001 116.436ZM68.8418 116.436L67.9795 115.651H68.8418V116.436ZM84.1318 115.417L81.5439 113.456L84.5234 112.28L84.1318 115.417ZM48.2422 113.112L45.6201 115.027L45.2832 111.885L48.2422 113.112ZM65 16.1514C91.9776 16.1516 113.848 38.0214 113.849 64.999C113.849 91.9769 91.9778 113.847 65 113.848C38.0222 113.847 16.1523 91.9769 16.1523 64.999C16.1527 38.0214 38.0224 16.1516 65 16.1514ZM65 17.9277C39.0033 17.9279 17.9289 39.0033 17.9287 65C17.9289 90.9967 39.0033 112.071 65 112.071C90.9967 112.071 112.072 90.9967 112.072 65C112.072 39.0033 90.9967 17.9279 65 17.9277ZM107.105 109.692L105.38 111.496V109.536L107.105 109.692ZM92.207 111.418L88.8359 110.555L92.3643 108.752L92.207 111.418ZM99.1855 110.947L100.911 111.025V109.222H99.2646L99.1855 110.947ZM41.001 110.085L37.6152 110.889L37.5039 108.22L41.001 110.085ZM24.4434 110.736L22.75 108.903L24.4785 108.777L24.4434 110.736ZM28.9199 110.344L30.6465 110.296L30.5977 108.57L28.9512 108.542L28.9199 110.344ZM107.654 109.222V107.497H109.457L107.654 109.222ZM106.87 108.987H105.302V107.419H106.87V108.987ZM22.2393 106.698L22.209 108.424L20.4375 106.667L22.2393 106.698ZM24.5928 106.661L24.5654 108.229L22.998 108.202L23.0254 106.634L24.5928 106.661ZM115.651 99.6562L112.358 100.519L112.594 103.733L111.496 104.987L110.947 99.4209L116.278 98.4014L115.651 99.6562ZM118.082 96.3633C117.063 96.7292 114.538 97.5235 112.594 97.7744C110.653 98.0249 109.956 98.0877 109.85 98.0879L110.319 104.438L109.222 104.596L108.595 98.2451L104.125 98.4014L104.909 97.3037L108.281 97.0684L107.968 93.4619L108.595 92.1289L111.652 91.3447L111.81 92.7559L109.222 93.2266L109.535 97.0684C110.685 96.9115 113.299 96.5043 114.554 96.1279C115.807 95.7519 116.382 95.6054 116.514 95.5791L113.927 89.4629L109.379 90.7959L110.163 89.6982L114.554 88.1299L118.082 96.3633ZM107.497 100.754H102.792L102.479 101.067V104.438H98.2451L100.048 102.792L100.205 103.185H101.303V102.243L100.597 102.479L103.106 99.6562H107.497V100.754ZM107.732 104.438H105.851V101.852H107.732V104.438ZM18.8184 98.0879L18.4424 104.123L17.0723 103.184L17.4971 99.1064L14.0322 98.3193L13.4258 97.0537L18.8184 98.0879ZM26.9238 98.9385L29.3828 101.805L28.6816 101.558L28.665 102.497L29.7627 102.517L29.9258 102.128L31.7002 103.806L27.4668 103.731L27.5254 100.361L27.2178 100.042L22.5146 99.96L22.5332 98.8613L26.9238 98.9385ZM19.3662 87.8164L20.1504 88.9922L16.2832 88.5586L13.6152 94.3096C13.7454 94.338 14.3183 94.4946 15.5654 94.8926C16.8131 95.2907 19.4202 95.745 20.5674 95.9219L21.0137 92.0508L18.4346 91.5352L18.6162 90.127L21.6592 90.9639L22.2637 92.3066L21.8213 95.9434L25.1885 96.2373L25.9531 97.3486L21.4863 97.1133L20.7227 103.771L19.627 103.595L20.2354 96.9355C20.1285 96.9334 19.4332 96.8573 17.498 96.5732C15.5584 96.2884 13.0471 95.4501 12.0342 95.0664L15.9951 86.9541L19.3662 87.8164ZM24.1416 101.086L24.0967 103.673L22.2148 103.64L22.2598 101.054L24.1416 101.086ZM113.612 102.479L113.456 101.225L114.71 101.067L113.612 102.479ZM16.4658 100.042L16.2305 101.694L14.9785 99.8623L16.4658 100.042ZM107.497 96.2061H105.851L106.948 94.6377L107.497 96.2061ZM113.534 91.1875L114.554 94.873L110.319 95.5791V94.4814L113.063 94.0889L112.985 93.8535L112.358 91.1094L113.534 91.1875ZM24.2402 95.4414L22.5938 95.4131L23.1699 93.8545L24.2402 95.4414ZM122.943 85.4639L116.906 88.209L119.18 93.6973L118.474 94.873L115.494 87.5029L123.335 83.8965L122.943 85.4639ZM17.1543 92.6309L17.0723 92.8652L19.8086 93.3057V94.418L15.5879 93.6387L16.6455 90.29L17.8223 90.2324L17.1543 92.6309ZM10.9766 79.9756L8.5459 84.21L14.8975 86.1699L11.6416 93.8887L10.957 92.6992L13.3291 86.876L7.13477 84.7588L9.56641 80.6035L5.48828 78.25L4.86133 76.29L10.9766 79.9756ZM119.964 92.1289L119.022 90.6396L120.826 90.4043L119.964 92.1289ZM11.1934 89.8984L10.2715 91.502L9.29199 89.7305L11.1934 89.8984ZM121.297 88.8359L118.709 89.6982L118.239 88.8359L122.081 87.3457L121.297 88.8359ZM11.8916 87.7256L11.4053 88.5811L8.78223 87.9736L7.60547 86.5625L11.8916 87.7256ZM118.396 85.1514L110.946 88.209L111.104 87.0332L116.749 84.8379L113.612 79.9766L114.005 78.4863L118.396 85.1514ZM15.5254 76.6826L12.2686 82.9424L18.2842 84.9971L18.7393 86.4053L10.4287 83.5039L14.9756 74.4082L15.5254 76.6826ZM114.945 84.1318L111.81 85.3867L113.063 81.7012L114.945 84.1318ZM118.866 80.8389L124.825 76.7617V78.3301L119.415 81.9365L120.591 83.7402L119.336 84.1318L114.475 76.918L115.573 75.9775L118.866 80.8389ZM17.7988 83.5039L13.4854 82.3281L15.8389 78.4854L17.7988 83.5039ZM124.433 80.6816C124.276 81.1258 123.916 82.0613 123.728 82.25L121.453 83.2695L120.826 82.4854L124.433 80.6816ZM8.1543 80.8379L6.35156 82.877L5.95898 80.2119L8.1543 80.8379ZM120.103 72.8691L123.16 76.6328L123.212 76.6963L123.146 76.7451L119.304 79.5684L119.242 79.6143L119.195 79.5518L116.529 76.0234L116.485 75.9658L116.54 75.918L119.989 72.8604L120.051 72.8057L120.103 72.8691ZM9.54004 68L14.7148 72.626L14.7666 72.6719L14.7266 72.7295L10.7285 78.5312L10.6846 78.5938L10.6211 78.5527L4.58398 74.6318L4.55078 74.6104L4.54785 74.5713L4.46973 73.3164L4.46777 73.2832L4.49121 73.2578L9.43066 68.0049L9.48242 67.9492L9.54004 68ZM119.913 75.1318L118.58 76.2295L118.522 76.2773L118.567 76.3379L119.509 77.5918L119.557 77.6562L119.619 77.6064L121.03 76.5088L121.094 76.46L121.043 76.3975L120.024 75.1436L119.975 75.082L119.913 75.1318ZM125.139 74.8799L124.59 76.4482L120.277 71.665L115.573 75.4287L114.945 75.6641L115.259 73.625L120.434 69.4697L125.139 74.8799ZM9.43066 70.0449L6.21582 73.5732L6.15527 73.6396L6.22949 73.6904L9.99219 76.2783L10.0537 76.3203L10.0996 76.2607L12.6084 72.9678L12.6514 72.9111L12.5996 72.8623L9.54102 70.04L9.4834 69.9863L9.43066 70.0449ZM11.1338 73.1553L9.64453 74.7227L7.84082 73.3896L9.4873 71.665L11.1338 73.1553ZM125.688 72.1357L125.452 73.9385L120.826 68.293L115.259 72.8408L115.573 70.8809L120.826 66.333L125.688 72.1357ZM14.7412 69.7051V71.5078L9.56641 66.7256L4.3125 72.0566L4.15625 70.4102L9.33105 64.7646L14.7412 69.7051ZM125.844 63.04L123.492 65.7061L126.079 68.8428V70.2539L121.61 65.4707L125.844 61.2363V63.04ZM119.571 65.7061L115.573 69.3125V67.9795L117.847 65.7061L115.573 63.3535L115.808 61.8643L119.571 65.7061ZM8.38965 64.6084L4.15625 68.8428V67.0391L6.50781 64.373L3.9209 61.2363V59.8252L8.38965 64.6084ZM14.4268 62.0996L12.1533 64.373L14.4268 66.7256L14.1924 68.2148L10.4287 64.373L14.4268 60.7666V62.0996ZM126.236 67.0391L124.903 65.8633L126.236 64.7646V67.0391ZM116.671 65.7061L115.573 66.5684V64.6084L116.671 65.7061ZM14.4268 65.4707L13.3291 64.373L14.4268 63.5107V65.4707ZM5.09668 64.2158L3.76367 65.3135V63.04L5.09668 64.2158ZM125.844 59.6689L120.669 65.3135L115.259 60.374V58.5713L120.434 63.3535L125.688 58.0225L125.844 59.6689ZM9.17383 61.7852L14.7412 57.2383L14.4268 59.1982L9.17383 63.7461L4.3125 57.9434L4.54785 56.1406L9.17383 61.7852ZM119.379 51.5264L125.416 55.4473L125.449 55.4688L125.452 55.5078L125.53 56.7627L125.532 56.7959L125.509 56.8213L120.569 62.0742L120.518 62.1299L120.46 62.0791L115.285 57.4531L115.233 57.4072L115.273 57.3496L119.271 51.5479L119.315 51.4854L119.379 51.5264ZM9.72266 58.4141L14.4268 54.6504L15.0547 54.415L14.7412 56.4541L9.56641 60.6094L4.86133 55.1992L5.41016 53.6309L9.72266 58.4141ZM119.9 53.8184L117.392 57.1113L117.349 57.168L117.4 57.2168L120.459 60.0391L120.517 60.0928L120.569 60.0342L123.784 56.5059L123.845 56.4395L123.771 56.3887L120.008 53.8008L119.946 53.7588L119.9 53.8184ZM122.159 56.6895L120.513 58.4141L118.866 56.9238L120.355 55.3564L122.159 56.6895ZM10.8047 50.5264L13.4707 54.0547L13.5146 54.1123L13.46 54.1602L10.0107 57.2178L9.94922 57.2725L9.89746 57.209L6.83984 53.4453L6.78809 53.3818L6.85352 53.333L10.6963 50.5098L10.7578 50.4639L10.8047 50.5264ZM119.571 46.5742L115.024 55.6699L114.475 53.3965L117.731 47.1357L111.717 45.0801L111.261 43.6738L119.571 46.5742ZM10.3799 52.4717L8.96875 53.5693L8.90527 53.6182L8.95605 53.6807L9.97461 54.9346L10.0244 54.9961L10.0859 54.9463L11.4189 53.8486L11.4766 53.8008L11.4316 53.7402L10.4902 52.4863L10.4424 52.4219L10.3799 52.4717ZM15.5254 53.1611L14.4268 54.1016L11.1338 49.2402L5.1748 53.3174V51.749L10.585 48.1426L9.40918 46.3389L10.6641 45.9473L15.5254 53.1611ZM119.043 37.3779L116.671 43.2021L122.865 45.3193L120.434 49.4756L124.512 51.8281L125.139 53.7871L119.023 50.1025L121.454 45.8682L115.103 43.9082L118.358 36.1895L119.043 37.3779ZM18.8965 43.0459L13.251 45.2412L16.3877 50.1025L15.9951 51.5928L11.6045 44.9277L19.0537 41.8701L18.8965 43.0459ZM116.515 47.75L114.161 51.5928L112.201 46.5742L116.515 47.75ZM124.041 49.8672L121.846 49.2402L123.648 47.2012L124.041 49.8672ZM9.17383 47.5938L5.56738 49.3975C5.72406 48.9535 6.08415 48.0184 6.27246 47.8291L8.54688 46.8096L9.17383 47.5938ZM16.9365 48.3779L15.0547 45.9473L18.1904 44.6924L16.9365 48.3779ZM14.5059 42.5752L6.66504 46.1826L7.05664 44.6143L13.0938 41.8701L10.8203 36.3809L11.5264 35.2051L14.5059 42.5752ZM121.218 42.1045L122.395 43.5166L118.108 42.3516L118.595 41.4971L121.218 42.1045ZM110.373 26.4834L109.765 33.1426C109.871 33.1447 110.568 33.2196 112.504 33.5039C114.443 33.7888 116.953 34.6281 117.966 35.0117L114.005 43.125L110.634 42.2617L109.85 41.0859L113.717 41.5195L116.385 35.7686C116.254 35.7401 115.682 35.5826 114.435 35.1846C113.187 34.7864 110.58 34.3341 109.433 34.1572L108.986 38.0273L111.565 38.543L111.384 39.9512L108.341 39.1143L107.737 37.7705L108.18 34.1348L104.812 33.8408L104.047 32.7295L108.514 32.9648L109.278 26.3076L110.373 26.4834ZM11.7607 41.2422L7.91895 42.7324L8.70312 41.2422L11.291 40.3799L11.7607 41.2422ZM21.4053 31.834L25.875 31.6768L25.0908 32.7744L21.7188 33.0098L22.0322 36.6162L21.4053 37.9492L18.3477 38.7334L18.1904 37.3223L20.7783 36.8516L20.4648 33.0098C19.3147 33.1666 16.7007 33.5749 15.4463 33.9512C14.1923 34.3274 13.6171 34.4738 13.4863 34.5L16.0732 40.6152L20.6211 39.2822L19.8369 40.3799L15.4463 41.9482L11.918 33.7158C12.9372 33.35 15.4618 32.5547 17.4062 32.3037C19.3459 32.0534 20.0431 31.9905 20.1504 31.9902L19.6807 25.6396L20.7783 25.4824L21.4053 31.834ZM120.708 40.3477L118.807 40.1797L119.729 38.5762L120.708 40.3477ZM114.412 36.4395L113.355 39.7891L112.178 39.8467L112.846 37.4473L112.928 37.2139L110.191 36.7734V35.6602L114.412 36.4395ZM10.9775 39.4395L9.17383 39.6748L10.0361 37.9492L10.9775 39.4395ZM19.6807 35.5977L16.9365 35.9893L17.0146 36.2246L17.6416 38.9688L16.4658 38.8906L15.4463 35.2051L19.6807 34.5V35.5977ZM107.406 34.665L106.83 36.2236L105.76 34.6367L107.406 34.665ZM23.0518 35.4404L22.5029 33.8721H24.1494L23.0518 35.4404ZM112.929 26.8936L112.503 30.9707L115.969 31.7588L116.574 33.0244L111.182 31.9902L111.558 25.9551L112.929 26.8936ZM19.0527 30.6572L13.7217 31.6768L14.3486 30.4229L17.6416 29.5596L17.4062 26.3447L18.5039 25.0908L19.0527 30.6572ZM102.533 26.3467L102.475 29.7178L102.782 30.0361L107.485 30.1182L107.467 31.2158L103.076 31.1396L100.617 28.2734L101.319 28.5215L101.336 27.5801L100.238 27.5605L100.074 27.9502L98.2998 26.2725L102.533 26.3467ZM29.9521 27.2861L29.7949 26.8945H28.6973V27.835L29.4033 27.5996L26.8936 30.4229H22.5029V29.3242H27.208L27.5215 29.0107V25.6396H31.7549L29.9521 27.2861ZM115.021 30.2148L113.535 30.0361L113.77 28.3838L115.021 30.2148ZM95.5762 11.5605L96.207 15.8066L101.077 15.3428L102.08 16.3008L102.435 22.9736L98.3584 22.9023L97.9639 18.5039L100.716 18.0811L100.734 17.0615L96.4971 17.2236L97.4795 23.8271L103.594 23.9346L103.475 17.2666L104.783 18.7012L104.924 24.1143L110.177 24.2061L111.097 25.3984L104.902 25.3691L104.758 29.1299L103.582 29.1094L103.648 25.2686L96.7529 24.9922L96.293 24.3555L94.0957 10.9863L94.1016 10.6729L95.5762 11.5605ZM107.785 26.4385L107.74 29.0254L105.858 28.9922L105.903 26.4053L107.785 26.4385ZM16.5439 28.8545L15.29 29.0107L16.3877 27.5996L16.5439 28.8545ZM36.2246 10.4277L33.7939 23.7568L33.3232 24.3848L26.4238 24.541V28.3828H25.2471L25.1689 24.6201L18.9746 24.541L19.915 23.3652H25.1689L25.4043 17.9551L26.7373 16.5439L26.502 23.208H32.6172L33.7148 16.6221L29.3242 16.1514V17.9551L32.0684 18.1904L31.7549 22.2676H27.6777L28.1484 15.6025L29.168 14.6621L34.0293 15.2109L34.7344 10.9766L36.2246 10.1143V10.4277ZM24.1494 28.2266H22.2676V25.6396H24.1494V28.2266ZM92.3877 10.0146C92.7803 11.4854 93.6509 14.9309 93.9922 16.9443C94.3334 18.9575 94.8927 22.2389 95.1299 23.6289L93.5771 22.7393L93.0361 17.79L88.0693 19.3496L86.2012 18.5332L85.0996 14.2012L90.2598 10.6055L91.6611 15.7275L88.5039 16.8486L88.3008 15.041L90.1914 14.5254L89.5938 12.8682L87.1348 14.4717L87.7793 18.0117L92.749 16.2959L91.3701 9.91895L92.3877 10.0146ZM107.002 21.876L106.975 23.4443L105.407 23.417L105.435 21.8486L107.002 21.876ZM109.562 23.4102L107.761 23.3789L107.791 21.6543L109.562 23.4102ZM37.4795 15.7598L42.6543 17.6416L43.6729 14.0352L40.6934 11.9961L40.3018 14.0352L42.3398 14.8193L42.0264 15.8379L38.8906 14.6621L40.0664 10.1143L45.1631 13.7998L43.9873 18.1123L42.1055 18.8965L37.165 17.25L36.2246 22.2676L34.9697 23.0518C35.2311 21.6666 35.8482 18.394 36.2246 16.3867C36.601 14.3796 37.531 10.951 37.9492 9.4873L38.9688 9.40918L37.4795 15.7598ZM24.6982 22.6592H23.1299V21.0918H24.6982V22.6592ZM22.3457 22.5811H20.543L22.3457 20.8564V22.5811ZM92.4961 21.8584L88.999 19.9932L92.3848 19.1904L92.4961 21.8584ZM99.3535 19.7832L99.4023 21.5088L101.049 21.5381L101.08 19.7354L99.3535 19.7832ZM41.1641 19.5234L37.6357 21.3271L37.793 18.6611L41.1641 19.5234ZM107.25 21.1748L105.521 21.3018L105.557 19.3418L107.25 21.1748ZM29.0889 21.0908L30.8926 21.248L31.2061 19.0527L29.2461 18.8174L29.0889 21.0908ZM24.6201 20.543L22.8945 20.3857L24.6201 18.582V20.543ZM84.7168 18.1934L81.7578 16.9648L84.3799 15.0508L84.7168 18.1934ZM48.4561 16.623L45.4766 17.7988L45.8682 14.6621L48.4561 16.623ZM90.7568 9.12402L80.5879 16.6318L79.1074 16.1357L89.3564 8.47266L90.7568 9.12402ZM51.1221 15.8389L49.6318 16.3096L39.5957 8.625L41.0078 7.99805L51.1221 15.8389ZM78.4443 4.6748L84.0566 11.124L77.9375 15.7227L75.4326 15.4443L81.7109 10.6914L76.5635 4.64258L78.4443 4.6748ZM48.6123 10.3496L54.8066 15.2109L52.2979 15.4463L46.2607 10.7422L51.9844 4.39062H53.8662L48.6123 10.3496ZM74.6914 3.98145L80.4609 10.4336L74.3428 15.0312L71.6777 14.9072L78.1152 10.001L72.8105 3.94824L74.6914 3.98145ZM52.2197 9.72266L58.5703 14.7412L55.9043 14.8193L49.8672 10.1152L55.748 3.76367H57.6299L52.2197 9.72266ZM71.2031 3.60742L71.2266 3.63184L76.7656 9.7666L76.8203 9.82715L76.7578 9.87988L70.8682 14.7959L70.8457 14.8145L70.0332 14.7998L70.2295 3.58984L71.2031 3.60742ZM60.2168 14.6621H59.4043L59.3818 14.6436L53.5791 9.625L53.5176 9.57129L53.5732 9.51172L59.2188 3.47461L59.2422 3.4502H60.2168V14.6621ZM96.5068 12.126C96.738 12.3653 97.2933 12.924 97.6641 13.2441L99.0547 14.4453L96.8555 14.6416L96.5801 12.4404L96.5068 12.126ZM62.0205 14.4268H61.1582V13.6426L62.0205 14.4268ZM68.999 14.4268H68.1367L68.999 13.6426V14.4268ZM64.0596 14.3486H62.6484L61.1582 12.7021V11.2129L64.0596 14.3486ZM68.999 12.7021L67.5088 14.3486H66.0977L68.999 11.2129V12.7021ZM33.7148 11.8389L33.4014 14.0342L31.2061 13.7998L32.6172 12.623C32.9934 12.3095 33.5586 11.7608 33.7939 11.5254L33.7148 11.8389ZM68.6855 9.17383V9.80176L65.0791 13.4082L61.002 9.48828L64.9219 5.01855L68.6855 9.17383ZM71.1748 12.2344L71.3027 12.1406L74.7197 9.61133L74.7891 9.56055L74.7314 9.49609L71.4229 5.83105L71.2891 5.68359L71.1748 12.2344ZM58.9834 5.66992L55.6113 9.27637L55.5527 9.33984L55.6211 9.39258L58.9932 11.9805L59.1191 12.0771V5.52539L58.9834 5.66992ZM62.6484 9.48828L65.0791 11.8398L67.1953 9.33105L64.9219 7.05762L62.6484 9.48828ZM82.8105 6.16113L85.7275 9.74121L84.6943 10.5078L80.3945 5.25684L82.8105 6.16113ZM66.0195 9.33008L65 10.5068L63.9023 9.33008L65 8.23242L66.0195 9.33008ZM45.6338 10.1152L44.6143 9.33105L47.5938 5.80273L50.0244 4.94043L45.6338 10.1152ZM86.8633 7.56543L87.6348 8.28516L86.4434 9.12695L83.8242 6.41504L86.8633 7.56543ZM43.9082 8.70312L42.7324 7.84082L43.5166 7.13477L46.5742 6.03711L43.9082 8.70312ZM64.9219 3.52832L61.1582 7.68457V5.48926L62.9619 3.4502L64.9219 3.52832ZM68.999 5.48926V7.68457L65.2354 3.52832L67.1953 3.4502L68.999 5.48926ZM61.1582 4.7832V3.60742L62.334 3.52832L61.1582 4.7832ZM68.999 3.60742V4.7832L67.8232 3.52832L68.999 3.60742Z" fill="#DAA765"/>
<path d="M24.7569 76.6892C24.7847 76.7641 24.8088 76.8076 24.8292 76.8197C24.8546 76.8347 24.8815 76.8386 24.9099 76.8314L27.146 76.2587L27.1551 76.2434L24.5204 75.7656L26.6285 74.0861L26.6254 74.074L24.3528 74.656C24.3244 74.6632 24.3022 74.6776 24.2861 74.699C24.275 74.7234 24.2753 74.7751 24.2869 74.8541L24.214 74.8728L23.9401 73.8033L24.0131 73.7847C24.0409 73.8596 24.065 73.903 24.0853 73.9151C24.1108 73.9302 24.1377 73.9341 24.166 73.9268L26.9977 73.2016C27.026 73.1944 27.0457 73.1785 27.0567 73.1541C27.0728 73.1327 27.0751 73.0825 27.0635 73.0035L27.1364 72.9848L27.5426 74.5708L27.4696 74.5894C27.4407 74.4932 27.3918 74.454 27.3229 74.4716C27.3189 74.4726 27.2896 74.4931 27.235 74.533C27.1805 74.5728 27.1133 74.6224 27.0335 74.6817C26.9548 74.745 26.8685 74.8125 26.7745 74.884C26.6857 74.9585 26.5979 75.0285 26.511 75.0939C26.4293 75.1624 26.3561 75.2221 26.2915 75.2732C26.2268 75.3243 26.1839 75.359 26.1627 75.3774C26.3343 75.4068 26.5024 75.4393 26.6669 75.4749C26.8314 75.5105 26.9817 75.541 27.1177 75.5666C27.2548 75.5963 27.3685 75.619 27.4589 75.6347C27.5492 75.6504 27.6046 75.6556 27.6248 75.6504C27.6937 75.6328 27.7177 75.5749 27.6968 75.4766L27.7698 75.4579L28.1915 77.1047L28.1186 77.1233C28.0907 77.0484 28.0641 77.0035 28.0387 76.9884C28.0183 76.9763 27.994 76.9739 27.9656 76.9812L25.134 77.7064C25.1056 77.7136 25.0834 77.728 25.0673 77.7494C25.0562 77.7738 25.0565 77.8255 25.0682 77.9045L24.9952 77.9232L24.684 76.7079L24.7569 76.6892ZM29.0464 79.2965C29.1433 79.5459 29.199 79.7934 29.2137 80.039C29.2337 80.2869 29.2093 80.5185 29.1403 80.7337C29.0729 80.9528 28.9607 81.1489 28.8036 81.3221C28.6466 81.4952 28.4395 81.6318 28.1822 81.7317C27.9249 81.8316 27.6799 81.8707 27.4472 81.849C27.2144 81.8273 26.9992 81.7583 26.8016 81.6422C26.6054 81.53 26.433 81.3749 26.2844 81.1769C26.1372 80.9829 26.0152 80.7611 25.9182 80.5116C25.8213 80.2622 25.7609 80.0142 25.737 79.7678C25.7145 79.5253 25.737 79.2945 25.8044 79.0754C25.8734 78.8602 25.9864 78.666 26.1434 78.4929C26.3004 78.3197 26.5076 78.1832 26.7649 78.0832C27.0221 77.9833 27.2671 77.9442 27.4999 77.9659C27.7326 77.9876 27.9471 78.0546 28.1432 78.1669C28.3409 78.283 28.5152 78.4373 28.6663 78.6299C28.8227 78.8248 28.9494 79.047 29.0464 79.2965ZM28.333 79.5736C28.2831 79.4449 28.2159 79.3297 28.1315 79.2279C28.0486 79.13 27.9527 79.0506 27.8438 78.9898C27.7403 78.9313 27.6234 78.8959 27.4931 78.8837C27.3681 78.874 27.2375 78.8956 27.101 78.9486C26.9646 79.0016 26.8517 79.0746 26.7622 79.1677C26.6781 79.2631 26.6158 79.3681 26.575 79.4826C26.5397 79.5995 26.5245 79.7221 26.5294 79.8503C26.5358 79.9824 26.5641 80.1127 26.614 80.2413C26.664 80.37 26.7304 80.4832 26.8133 80.5811C26.8977 80.6829 26.9917 80.7631 27.0951 80.8216C27.204 80.8825 27.3209 80.9178 27.4459 80.9276C27.5762 80.9398 27.7096 80.9194 27.846 80.8664C27.9825 80.8134 28.0927 80.7391 28.1767 80.6437C28.2662 80.5506 28.3286 80.4456 28.3639 80.3287C28.4047 80.2142 28.4218 80.0909 28.4154 79.9588C28.4104 79.8306 28.383 79.7022 28.333 79.5736ZM29.8375 81.8117C29.8636 81.7984 29.8793 81.7787 29.8848 81.7525C29.8959 81.7281 29.8871 81.6786 29.8586 81.604L29.9257 81.5699L30.6102 82.9178L30.5431 82.9518C30.5071 82.8903 30.476 82.8522 30.4498 82.8374C30.4291 82.8244 30.4095 82.8227 30.3908 82.8322C30.3834 82.8359 30.3621 82.8772 30.3271 82.956C30.292 83.0347 30.2496 83.136 30.1999 83.2597C30.1502 83.3835 30.094 83.5222 30.0314 83.676C29.9744 83.8315 29.9155 83.9881 29.8548 84.1455C29.7978 84.3011 29.7426 84.4511 29.6892 84.5954C29.6396 84.7379 29.5964 84.8606 29.5597 84.9637L31.053 84.2054C31.1164 84.1732 31.13 84.117 31.094 84.0369L31.1611 84.0028L31.6808 85.0263L31.6137 85.0603C31.5703 84.9933 31.5345 84.9552 31.5064 84.946C31.4839 84.9387 31.4596 84.9416 31.4335 84.9549L28.8273 86.2783C28.8012 86.2916 28.7826 86.3104 28.7715 86.3348C28.7661 86.361 28.7776 86.4114 28.8061 86.486L28.739 86.5201L28.1994 85.4575L28.2665 85.4234C28.293 85.4756 28.3157 85.5063 28.3344 85.5155C28.3551 85.5285 28.3747 85.5302 28.3934 85.5208C28.4045 85.5151 28.4148 85.5029 28.424 85.4841C28.4369 85.4635 28.4545 85.4241 28.4766 85.366C28.4986 85.3079 28.528 85.2226 28.5647 85.1101C28.6071 84.9995 28.6613 84.8524 28.7275 84.6687C28.7974 84.4831 28.883 84.2544 28.9841 83.9826C29.089 83.7089 29.217 83.379 29.3679 82.9928L27.6117 83.8846C27.5856 83.8978 27.5671 83.9166 27.556 83.941C27.5505 83.9672 27.5621 84.0176 27.5906 84.0923L27.5235 84.1264L26.9839 83.0637L27.051 83.0296C27.0944 83.0967 27.1274 83.1339 27.1499 83.1412C27.178 83.1504 27.2051 83.1484 27.2312 83.1351L29.8375 81.8117ZM31.6 88.7977C31.6304 88.7679 31.6482 88.7338 31.6532 88.6956C31.664 88.6586 31.6522 88.6138 31.618 88.5613L30.9802 87.5843L30.4917 87.9032L31.5923 89.5893C31.6106 89.6173 31.6331 89.6326 31.6597 89.6352C31.6899 89.6355 31.7405 89.6174 31.8116 89.581L31.8528 89.644L30.9546 90.2303L30.9134 90.1673C30.9544 90.1305 30.9755 90.1018 30.9769 90.0809C30.9782 90.06 30.9698 90.0356 30.9515 90.0076L29.2406 87.3865L29.3036 87.3454C29.3541 87.4073 29.3909 87.4407 29.414 87.4456C29.443 87.4517 29.4697 87.4467 29.4942 87.4307L31.9419 85.833C31.9664 85.817 31.98 85.7957 31.9826 85.769C31.9909 85.7436 31.9769 85.6953 31.9405 85.6242L32.0035 85.583L33.7144 88.2041C33.7327 88.2321 33.7551 88.2474 33.7818 88.25C33.812 88.2503 33.8591 88.2345 33.9232 88.2027L33.9643 88.2657L33.0504 88.8623L33.0092 88.7992C33.0642 88.7534 33.0958 88.7177 33.1042 88.6923C33.1161 88.6646 33.1129 88.6367 33.0946 88.6087L31.994 86.9226L31.558 87.2072L32.1957 88.1842C32.23 88.2367 32.2645 88.2666 32.2993 88.2739C32.3398 88.2824 32.3798 88.2787 32.4194 88.2629L32.4606 88.3259L31.6411 88.8608L31.6 88.7977ZM36.2869 91.4952L36.228 91.5421C36.2071 91.5159 36.1791 91.5008 36.1439 91.4968C36.1145 91.4935 36.0818 91.4927 36.0459 91.4946L33.9659 91.6107L33.0088 92.3723C32.9859 92.3906 32.9714 92.4127 32.9655 92.4388C32.9654 92.4656 32.9868 92.5127 33.0298 92.5801L32.9709 92.627L32.1663 91.6159L32.2252 91.569C32.2812 91.626 32.321 91.6558 32.3445 91.6584C32.3738 91.6618 32.4 91.6543 32.4229 91.6361L33.2867 90.9487L33.8856 88.941C33.9192 88.8288 33.9376 88.758 33.941 88.7286C33.9476 88.6966 33.9418 88.6692 33.9235 88.6463L33.9824 88.5994L34.8417 89.6792L34.7828 89.7261C34.7594 89.6966 34.734 89.6714 34.7066 89.6504C34.6792 89.6295 34.6525 89.6294 34.6263 89.6502C34.6132 89.6607 34.5909 89.7132 34.5593 89.8078C34.5277 89.9024 34.4915 90.0114 34.4507 90.1347C34.4125 90.2613 34.3739 90.3908 34.335 90.5233C34.2962 90.6558 34.2613 90.7664 34.2303 90.8551C34.2545 90.8519 34.3009 90.8498 34.3695 90.8486C34.4413 90.8449 34.5223 90.8392 34.6125 90.8316C34.7052 90.8273 34.8025 90.822 34.9044 90.8157C35.0089 90.8127 35.1033 90.8071 35.1876 90.7988C35.2745 90.7938 35.3479 90.7888 35.408 90.7837C35.4714 90.776 35.5064 90.7696 35.5129 90.7644C35.5391 90.7436 35.545 90.7175 35.5307 90.6861C35.5191 90.658 35.5041 90.6324 35.4859 90.6095L35.5448 90.5627L36.2869 91.4952ZM36.5331 94.0386L37.7076 95.1881L37.1898 95.7171L36.0154 94.5675L36.5331 94.0386ZM40.9375 99.8474C41.0067 99.8874 41.053 99.9055 41.0763 99.9018C41.1055 99.8972 41.1288 99.8831 41.146 99.8594L42.5035 97.9925L42.5008 97.9749L40.1664 99.2867L40.7196 96.6487L40.7095 96.6414L39.3298 98.5387C39.3126 98.5624 39.3046 98.5876 39.3058 98.6143C39.3129 98.6402 39.3461 98.6798 39.4054 98.7333L39.3612 98.7942L38.4683 98.1449L38.5126 98.0841C38.5817 98.124 38.628 98.1422 38.6514 98.1385C38.6806 98.1338 38.7038 98.1197 38.721 98.096L40.4401 95.7319C40.4573 95.7083 40.4624 95.6835 40.4553 95.6577C40.4541 95.6309 40.4238 95.5908 40.3644 95.5373L40.4087 95.4765L41.7328 96.4393L41.6885 96.5002C41.6049 96.4445 41.5422 96.4454 41.5004 96.5029C41.4979 96.5063 41.4884 96.5408 41.4718 96.6062C41.4552 96.6717 41.4351 96.7527 41.4114 96.8493C41.3911 96.9483 41.3676 97.0553 41.3409 97.1703C41.32 97.2843 41.2969 97.3942 41.2717 97.5C41.2523 97.6049 41.2341 97.6976 41.2168 97.7781C41.1996 97.8587 41.1887 97.9128 41.1841 97.9404C41.3351 97.8537 41.4852 97.7716 41.6347 97.6941C41.7841 97.6167 41.9193 97.5444 42.0405 97.4774C42.165 97.4128 42.2671 97.3577 42.3467 97.3122C42.4263 97.2667 42.4723 97.2355 42.4846 97.2186C42.5264 97.1611 42.5079 97.1012 42.4292 97.0388L42.4735 96.9779L43.8483 97.9776L43.804 98.0385C43.7349 97.9985 43.6857 97.9808 43.6565 97.9855C43.6331 97.9892 43.6128 98.0028 43.5956 98.0265L41.8765 100.391C41.8593 100.414 41.8513 100.439 41.8525 100.466C41.8596 100.492 41.8928 100.532 41.9521 100.585L41.9079 100.646L40.8932 99.9083L40.9375 99.8474ZM45.8966 99.1067C46.1308 99.2362 46.3322 99.3905 46.5007 99.5697C46.6749 99.7472 46.8045 99.9407 46.8894 100.15C46.978 100.362 47.0174 100.584 47.0078 100.818C46.9981 101.051 46.9265 101.289 46.7929 101.53C46.6594 101.772 46.4963 101.959 46.3036 102.091C46.111 102.224 45.9016 102.308 45.6754 102.346C45.4529 102.385 45.2212 102.377 44.9802 102.32C44.7429 102.265 44.5071 102.173 44.2729 102.044C44.0387 101.914 43.8335 101.762 43.6572 101.588C43.4847 101.417 43.3541 101.225 43.2655 101.014C43.1806 100.804 43.143 100.583 43.1527 100.349C43.1623 100.116 43.2339 99.878 43.3675 99.6364C43.501 99.3949 43.6641 99.2079 43.8568 99.0755C44.0494 98.9431 44.257 98.8572 44.4795 98.8177C44.7057 98.7803 44.9384 98.7872 45.1778 98.8382C45.4228 98.8877 45.6624 98.9772 45.8966 99.1067ZM45.5264 99.7764C45.4056 99.7096 45.2802 99.6642 45.1502 99.6401C45.0238 99.618 44.8993 99.6185 44.7767 99.6414C44.6598 99.6628 44.5474 99.7106 44.4395 99.7847C44.3373 99.8572 44.2508 99.9575 44.1799 100.086C44.1091 100.214 44.0692 100.342 44.0601 100.471C44.0567 100.598 44.076 100.719 44.1181 100.833C44.1659 100.945 44.2327 101.049 44.3186 101.144C44.4081 101.241 44.5133 101.324 44.6341 101.39C44.7548 101.457 44.8784 101.501 45.0048 101.524C45.1348 101.548 45.2583 101.549 45.3752 101.528C45.4978 101.505 45.6102 101.457 45.7124 101.384C45.8203 101.31 45.9097 101.209 45.9805 101.081C46.0513 100.953 46.0884 100.825 46.0918 100.698C46.1009 100.569 46.0815 100.449 46.0338 100.336C45.9917 100.222 45.9259 100.117 45.8364 100.019C45.7505 99.9242 45.6471 99.8432 45.5264 99.7764ZM47.6451 103.61C47.6831 103.617 47.7095 103.619 47.7243 103.616C47.7391 103.613 47.7489 103.605 47.7536 103.594C47.7568 103.586 47.7573 103.541 47.7551 103.459C47.7544 103.372 47.7529 103.261 47.7504 103.124C47.7518 102.989 47.7499 102.835 47.7448 102.661C47.7396 102.487 47.7349 102.306 47.7306 102.119C47.7302 101.933 47.7271 101.749 47.7212 101.565C47.7154 101.382 47.7106 101.213 47.7067 101.057C47.7029 100.902 47.6997 100.767 47.697 100.653C47.6982 100.54 47.699 100.462 47.6995 100.417C47.6995 100.34 47.6958 100.288 47.6883 100.263C47.6808 100.237 47.6623 100.216 47.633 100.199L47.6617 100.13L48.8506 100.62L48.8219 100.689C48.7739 100.674 48.7398 100.669 48.7195 100.674C48.6993 100.679 48.6852 100.692 48.6772 100.711C48.6724 100.723 48.6698 100.751 48.6693 100.796C48.6743 100.839 48.6792 100.931 48.6839 101.073C48.6925 101.217 48.702 101.425 48.7123 101.696C48.7266 101.968 48.7433 102.339 48.7625 102.809C49.0942 102.498 49.3565 102.251 49.5495 102.068C49.7479 101.883 49.8989 101.741 50.0024 101.644C50.1098 101.548 50.18 101.482 50.213 101.446C50.2476 101.406 50.268 101.378 50.2744 101.363C50.2824 101.343 50.2822 101.327 50.2737 101.315C50.2669 101.298 50.2469 101.281 50.2137 101.263L50.2424 101.193L51.2399 101.604L51.2112 101.674C51.1848 101.672 51.1623 101.672 51.1436 101.673C51.1289 101.676 51.112 101.69 51.0931 101.714C51.0758 101.734 51.0295 101.78 50.9542 101.853C50.8789 101.926 50.7852 102.016 50.673 102.124C50.5647 102.233 50.4423 102.354 50.3058 102.488C50.1747 102.62 50.0382 102.753 49.8962 102.889C49.7581 103.027 49.6216 103.16 49.4866 103.29C49.3556 103.422 49.2375 103.538 49.1324 103.64C49.0311 103.743 48.9483 103.828 48.8839 103.897C48.8195 103.965 48.7857 104.003 48.7825 104.011C48.7682 104.046 48.7881 104.074 48.8422 104.097L48.8111 104.172L47.6165 103.68L47.6451 103.61ZM53.3248 104.406C53.3286 104.364 53.3201 104.326 53.2992 104.294C53.2834 104.259 53.2455 104.232 53.1854 104.214L52.0668 103.883L51.901 104.442L53.8314 105.015C53.8635 105.024 53.8905 105.021 53.9125 105.006C53.9357 104.987 53.9625 104.94 53.9931 104.866L54.0653 104.888L53.7604 105.916L53.6882 105.895C53.6957 105.84 53.6931 105.804 53.6807 105.788C53.6682 105.771 53.6459 105.758 53.6138 105.748L50.613 104.858L50.6344 104.786C50.7129 104.801 50.7626 104.802 50.7834 104.791C50.8094 104.777 50.8265 104.756 50.8348 104.728L51.6658 101.925C51.6741 101.897 51.6706 101.872 51.6554 101.85C51.6453 101.826 51.6033 101.798 51.5295 101.767L51.5509 101.695L54.5518 102.585C54.5839 102.594 54.6109 102.592 54.6329 102.576C54.6561 102.557 54.6818 102.514 54.71 102.449L54.7822 102.47L54.4719 103.516L54.3997 103.495C54.4119 103.425 54.413 103.377 54.4029 103.352C54.394 103.323 54.3735 103.304 54.3414 103.295L52.411 102.722L52.263 103.221L53.3815 103.553C53.4417 103.571 53.4873 103.571 53.5185 103.554C53.5549 103.535 53.583 103.506 53.6029 103.468L53.6751 103.49L53.3969 104.428L53.3248 104.406ZM57.5764 106.438C57.656 106.443 57.7056 106.44 57.725 106.426C57.7492 106.409 57.7639 106.386 57.769 106.357L58.1728 104.085L58.1627 104.07L56.6376 106.271L55.9808 103.657L55.9685 103.655L55.5581 105.965C55.5529 105.993 55.5568 106.019 55.5696 106.043C55.5873 106.063 55.6345 106.084 55.7112 106.106L55.6981 106.181L54.6111 105.987L54.6243 105.913C54.704 105.919 54.7535 105.915 54.7729 105.901C54.7972 105.885 54.8118 105.862 54.817 105.833L55.3283 102.955C55.3334 102.926 55.3272 102.902 55.3095 102.881C55.2967 102.858 55.2519 102.835 55.1751 102.813L55.1883 102.739L56.8002 103.025L56.787 103.099C56.6875 103.086 56.6315 103.114 56.6191 103.184C56.6183 103.188 56.6248 103.223 56.6386 103.29C56.6523 103.356 56.6696 103.437 56.6906 103.535C56.7157 103.632 56.7414 103.739 56.7676 103.854C56.7987 103.966 56.8261 104.075 56.8497 104.181C56.8782 104.284 56.9023 104.375 56.9221 104.455C56.9419 104.535 56.9557 104.588 56.9637 104.615C57.0615 104.471 57.1606 104.332 57.261 104.197C57.3615 104.062 57.4515 103.937 57.5311 103.824C57.6148 103.712 57.6825 103.617 57.7342 103.542C57.7859 103.466 57.8135 103.418 57.8172 103.397C57.8296 103.327 57.7868 103.281 57.6887 103.26L57.7019 103.185L59.3756 103.483L59.3624 103.557C59.2827 103.551 59.2307 103.557 59.2065 103.574C59.1871 103.587 59.1748 103.609 59.1697 103.637L58.6584 106.515C58.6532 106.544 58.6571 106.57 58.6699 106.594C58.6876 106.614 58.7348 106.635 58.8115 106.657L58.7984 106.731L57.5632 106.512L57.5764 106.438ZM62.3434 105.855C62.3384 105.813 62.3224 105.778 62.2952 105.75C62.2725 105.719 62.2299 105.701 62.1674 105.696L61.0045 105.602L60.9577 106.184L62.9647 106.345C62.9981 106.348 63.0239 106.34 63.0422 106.32C63.0609 106.296 63.0776 106.245 63.0923 106.167L63.1674 106.173L63.0814 107.242L63.0063 107.236C63.0024 107.181 62.9925 107.147 62.9769 107.133C62.9612 107.119 62.9367 107.111 62.9033 107.108L59.7834 106.857L59.7894 106.782C59.8693 106.78 59.9182 106.772 59.9362 106.756C59.9588 106.737 59.9712 106.713 59.9735 106.684L60.2079 103.77C60.2103 103.741 60.2017 103.717 60.1822 103.699C60.1672 103.677 60.1204 103.658 60.0419 103.643L60.048 103.568L63.1679 103.819C63.2013 103.822 63.2271 103.814 63.2455 103.794C63.2641 103.77 63.2805 103.724 63.2945 103.653L63.3696 103.659L63.282 104.747L63.207 104.741C63.2044 104.67 63.1956 104.623 63.1806 104.601C63.1659 104.574 63.1419 104.56 63.1086 104.557L61.1015 104.396L61.0598 104.915L62.2227 105.008C62.2853 105.013 62.33 105.004 62.3571 104.981C62.3886 104.954 62.4102 104.92 62.4219 104.879L62.4969 104.886L62.4184 105.861L62.3434 105.855ZM64.0926 104.033C64.0922 104.003 64.0815 103.981 64.0604 103.964C64.0434 103.943 63.9952 103.929 63.9156 103.922L63.9147 103.847L65.4263 103.829L65.4272 103.904C65.3562 103.909 65.3082 103.92 65.2833 103.937C65.2626 103.95 65.2523 103.967 65.2526 103.987C65.2527 103.996 65.2803 104.033 65.3355 104.099C65.3906 104.166 65.4627 104.248 65.5517 104.348C65.6407 104.447 65.7403 104.559 65.8505 104.683C65.9649 104.803 66.0792 104.925 66.1936 105.049C66.308 105.169 66.4181 105.285 66.5239 105.396C66.6298 105.504 66.7208 105.597 66.797 105.675L66.7771 104.001C66.7762 103.93 66.7319 103.893 66.644 103.889L66.6431 103.814L67.7909 103.8L67.7918 103.876C67.7125 103.885 67.6625 103.9 67.6418 103.921C67.6253 103.938 67.6172 103.961 67.6176 103.991L67.6523 106.914C67.6527 106.943 67.6613 106.968 67.6783 106.989C67.6994 107.005 67.7497 107.017 67.8293 107.024L67.8302 107.1L66.6385 107.114L66.6376 107.039C66.6961 107.038 66.7337 107.031 66.7502 107.018C66.771 107.006 66.7813 106.989 66.781 106.968C66.7809 106.955 66.7744 106.941 66.7617 106.924C66.7489 106.903 66.7213 106.87 66.6789 106.825C66.6366 106.779 66.5731 106.715 66.4885 106.633C66.408 106.546 66.3 106.432 66.1645 106.291C66.0289 106.147 65.8616 105.969 65.6626 105.758C65.4634 105.543 65.2241 105.282 64.9444 104.976L64.9678 106.945C64.9682 106.975 64.9768 107 64.9938 107.02C65.0149 107.037 65.0652 107.049 65.1448 107.056L65.1457 107.132L63.954 107.146L63.9531 107.07C64.0324 107.061 64.0804 107.048 64.0969 107.031C64.1175 107.01 64.1277 106.985 64.1274 106.955L64.0926 104.033ZM69.5787 106.888C69.6569 106.872 69.7034 106.854 69.7183 106.836C69.737 106.813 69.7448 106.787 69.7418 106.758L69.5 104.424L68.4269 104.536C68.3936 104.539 68.3699 104.554 68.3559 104.581C68.3414 104.603 68.3336 104.65 68.3327 104.722L68.2578 104.73L68.1427 103.619L68.2176 103.611C68.2332 103.681 68.2507 103.728 68.2699 103.751C68.2887 103.77 68.3147 103.778 68.348 103.774L71.4302 103.455C71.4634 103.452 71.4873 103.439 71.5018 103.416C71.5159 103.389 71.5234 103.34 71.5244 103.269L71.5992 103.261L71.7143 104.372L71.6394 104.379C71.6238 104.309 71.6066 104.265 71.5878 104.246C71.5686 104.223 71.5423 104.213 71.509 104.216L70.4359 104.327L70.6777 106.661C70.6807 106.69 70.6916 106.714 70.7104 106.733C70.7329 106.748 70.7841 106.755 70.864 106.755L70.8717 106.83L69.5865 106.963L69.5787 106.888ZM73.8746 104.634L75.482 104.291L75.6362 105.015L74.0287 105.358L73.8746 104.634ZM81.1494 104.174C81.221 104.138 81.2617 104.11 81.2716 104.089C81.2839 104.062 81.285 104.034 81.2748 104.007L80.4722 101.843L80.4561 101.835L80.2554 104.505L78.3654 102.584L78.3536 102.588L79.1693 104.788C79.1795 104.815 79.1961 104.836 79.219 104.85C79.2444 104.858 79.2959 104.852 79.3733 104.833L79.3994 104.903L78.3643 105.287L78.3382 105.216C78.4097 105.181 78.4505 105.153 78.4603 105.131C78.4727 105.104 78.4738 105.077 78.4636 105.05L77.4472 102.309C77.4371 102.281 77.4193 102.263 77.3938 102.255C77.3709 102.241 77.3207 102.244 77.2433 102.264L77.2171 102.193L78.7521 101.624L78.7783 101.695C78.6857 101.734 78.6517 101.786 78.6764 101.853C78.6779 101.857 78.7013 101.884 78.7466 101.934C78.7919 101.984 78.8482 102.046 78.9155 102.119C78.9867 102.191 79.0628 102.27 79.1437 102.355C79.2271 102.436 79.3059 102.516 79.38 102.596C79.4565 102.67 79.5236 102.736 79.5811 102.795C79.6387 102.854 79.6777 102.893 79.6982 102.913C79.7096 102.739 79.7244 102.568 79.7426 102.401C79.7609 102.234 79.7756 102.081 79.7869 101.943C79.8021 101.804 79.8128 101.688 79.819 101.597C79.8252 101.505 79.8247 101.45 79.8174 101.43C79.7927 101.363 79.7325 101.345 79.637 101.376L79.6108 101.306L81.2046 100.715L81.2308 100.785C81.1592 100.821 81.1172 100.852 81.1049 100.879C81.095 100.9 81.0952 100.925 81.1054 100.952L82.1217 103.693C82.1319 103.72 82.1485 103.741 82.1714 103.755C82.1968 103.763 82.2482 103.758 82.3256 103.738L82.3518 103.808L81.1756 104.245L81.1494 104.174ZM83.8509 102.932C83.8607 102.95 83.874 102.962 83.891 102.968C83.9097 102.967 83.9393 102.956 83.98 102.935L84.0152 103.001L83.0334 103.52L82.9983 103.453C83.0351 103.424 83.0588 103.398 83.0695 103.373C83.0782 103.345 83.0801 103.304 83.0751 103.249C83.0727 103.227 83.0649 103.167 83.0515 103.07C83.0381 102.973 83.0232 102.851 83.0068 102.704C82.9885 102.553 82.9689 102.386 82.948 102.203C82.9271 102.02 82.9052 101.835 82.8823 101.649C82.8575 101.459 82.8338 101.275 82.8111 101.098C82.7902 100.915 82.7707 100.752 82.7526 100.611C82.7344 100.469 82.7188 100.354 82.7056 100.267C82.6961 100.177 82.6904 100.13 82.6885 100.127C82.6787 100.108 82.6589 100.102 82.6291 100.108C82.603 100.113 82.5761 100.12 82.5482 100.13L82.5131 100.063L83.9607 99.2987L83.9959 99.3653C83.9683 99.3846 83.9471 99.4028 83.9326 99.42C83.918 99.4371 83.9185 99.4605 83.9341 99.4901C83.938 99.4975 83.9801 99.5368 84.0602 99.6079C84.1441 99.6772 84.2518 99.7692 84.3834 99.8841C84.5131 99.9953 84.6609 100.123 84.8269 100.267C84.9946 100.406 85.1671 100.549 85.3443 100.696C85.5196 100.84 85.6893 100.982 85.8533 101.122C86.021 101.261 86.1715 101.385 86.3049 101.494C86.3696 101.545 86.4171 101.577 86.4473 101.589C86.4812 101.599 86.5148 101.596 86.5481 101.578L86.5832 101.645L85.4905 102.222L85.4554 102.155C85.5237 102.115 85.5471 102.074 85.5256 102.033C85.5237 102.03 85.5017 102.01 85.4598 101.976C85.4159 101.937 85.3683 101.896 85.3168 101.853C85.2633 101.805 85.2119 101.762 85.1623 101.721C85.1165 101.679 85.0869 101.65 85.0734 101.634L83.7589 102.328C83.7746 102.447 83.788 102.544 83.799 102.619C83.81 102.693 83.8179 102.753 83.8226 102.798C83.8311 102.841 83.8365 102.873 83.8389 102.896C83.843 102.913 83.847 102.925 83.8509 102.932ZM84.6948 101.266L83.4596 100.23L83.6632 101.811L84.6948 101.266ZM85.5772 98.5884C85.5604 98.5644 85.5386 98.5516 85.5119 98.5499C85.4862 98.5424 85.4384 98.5581 85.3686 98.5969L85.3253 98.5353L86.5625 97.6665L86.6057 97.7281C86.5499 97.7724 86.5166 97.8086 86.5057 97.8367C86.4958 97.859 86.4968 97.8787 86.5088 97.8958C86.5136 97.9027 86.5575 97.9178 86.6405 97.9413C86.7234 97.9649 86.8296 97.9925 86.9592 98.0241C87.0887 98.0558 87.234 98.0917 87.3951 98.1319C87.5572 98.1662 87.7205 98.2023 87.885 98.2401C88.0471 98.2745 88.2034 98.3078 88.3538 98.3401C88.5018 98.369 88.6295 98.3943 88.7368 98.4161L87.7743 97.0455C87.7334 96.9873 87.6758 96.9818 87.6016 97.0288L87.5583 96.9672L88.4977 96.3075L88.541 96.3691C88.4808 96.4216 88.4481 96.4624 88.443 96.4916C88.4389 96.5149 88.4453 96.5385 88.4621 96.5625L90.142 98.9546C90.1588 98.9785 90.1801 98.9943 90.2058 99.0018C90.2325 99.0034 90.2808 98.9849 90.3506 98.946L90.3939 99.0076L89.4185 99.6926L89.3753 99.631C89.4232 99.5973 89.4504 99.5706 89.4569 99.5507C89.4668 99.5284 89.4657 99.5087 89.4537 99.4916C89.4465 99.4813 89.4329 99.4729 89.413 99.4665C89.3908 99.4566 89.3493 99.4448 89.2886 99.4312C89.228 99.4176 89.1394 99.4006 89.0229 99.3802C88.9074 99.354 88.754 99.3212 88.5628 99.2817C88.3692 99.2389 88.1307 99.1866 87.8473 99.125C87.5615 99.06 87.2167 98.9802 86.813 98.8856L87.9449 100.497C87.9617 100.521 87.983 100.537 88.0087 100.545C88.0354 100.546 88.0837 100.528 88.1535 100.489L88.1968 100.551L87.2215 101.235L87.1782 101.174C87.2384 101.121 87.2706 101.083 87.2746 101.06C87.2797 101.031 87.2739 101.004 87.2571 100.98L85.5772 98.5884ZM91.6352 97.7802C91.6493 97.7957 91.6651 97.8039 91.6829 97.8048C91.7009 97.7997 91.7269 97.7818 91.761 97.7509L91.8115 97.8068L90.9882 98.5516L90.9377 98.4958C90.9662 98.4587 90.9826 98.427 90.9869 98.4006C90.9884 98.371 90.98 98.3307 90.9619 98.2794C90.9541 98.2583 90.9317 98.2024 90.8948 98.1117C90.8579 98.0211 90.8133 97.9063 90.761 97.7675C90.7059 97.6256 90.6457 97.4687 90.5803 97.2966C90.5149 97.1246 90.448 96.951 90.3798 96.7759C90.3088 96.5977 90.2404 96.4255 90.1747 96.2594C90.1093 96.0873 90.0503 95.9349 89.9978 95.802C89.9452 95.6691 89.9017 95.5618 89.8673 95.4802C89.836 95.3957 89.8189 95.3519 89.8161 95.3488C89.8021 95.3333 89.7814 95.3323 89.7541 95.3457C89.7299 95.3563 89.7055 95.3699 89.681 95.3865L89.6305 95.3306L90.8446 94.2323L90.8951 94.2881C90.8731 94.3136 90.8571 94.3365 90.8472 94.3568C90.8373 94.377 90.8436 94.3995 90.866 94.4243C90.8716 94.4305 90.9221 94.4582 91.0173 94.5074C91.1157 94.5537 91.2428 94.6164 91.3987 94.6952C91.5519 94.771 91.7266 94.8582 91.923 94.9568C92.1197 95.0495 92.3221 95.1455 92.5303 95.2447C92.7357 95.3409 92.9352 95.4367 93.1288 95.5323C93.3255 95.625 93.5019 95.7078 93.6582 95.7808C93.7335 95.8142 93.7873 95.8331 93.8196 95.8377C93.8551 95.8395 93.8867 95.8277 93.9147 95.8025L93.9652 95.8583L93.0488 96.6873L92.9983 96.6315C93.0544 96.5751 93.0671 96.5299 93.0362 96.4958C93.0334 96.4927 93.0074 96.4795 92.9582 96.4563C92.9063 96.43 92.8499 96.4021 92.7892 96.3724C92.7257 96.3396 92.6651 96.3099 92.6072 96.2833C92.5524 96.2539 92.5164 96.2329 92.4993 96.2202L91.3969 97.2176C91.4417 97.3294 91.4786 97.42 91.5077 97.4896C91.5367 97.5591 91.5591 97.615 91.5748 97.6572C91.5935 97.6967 91.6068 97.7269 91.6146 97.7481C91.6228 97.7633 91.6296 97.774 91.6352 97.7802ZM92.0417 95.9575L90.5889 95.2587L91.1765 96.7403L92.0417 95.9575ZM94.8701 93.0439C94.8481 93.0691 94.8424 93.0947 94.8531 93.1206C94.8606 93.1438 94.8772 93.1694 94.9028 93.1973L94.8533 93.254L94.1916 92.6767L94.2411 92.6199C94.3033 92.6631 94.3523 92.6642 94.388 92.6233L95.6045 91.2289L95.6612 91.2784C95.6204 91.3316 95.6252 91.3802 95.6756 91.4242L96.4602 92.1087C96.4823 92.1279 96.5039 92.1413 96.5252 92.1487C96.5464 92.1562 96.5681 92.1473 96.59 92.1221L96.6107 92.0985L96.6674 92.1479C96.5204 92.7744 96.1912 93.3807 95.6798 93.9668C95.5066 94.1653 95.3153 94.3369 95.1058 94.4816C94.896 94.6203 94.6772 94.7153 94.4495 94.7663C94.2218 94.8174 93.9907 94.8183 93.7561 94.7691C93.5212 94.714 93.2966 94.5929 93.0823 94.406C92.8681 94.219 92.7193 94.0143 92.636 93.7918C92.5522 93.5633 92.5202 93.3328 92.54 93.1003C92.5565 92.8651 92.6194 92.6341 92.7284 92.4073C92.837 92.1747 92.9779 91.9591 93.1511 91.7606C93.2199 91.6818 93.2819 91.6138 93.3373 91.5567C93.3927 91.4996 93.4499 91.4468 93.5088 91.3983C93.5677 91.3499 93.6312 91.3026 93.6992 91.2564C93.764 91.2076 93.8432 91.1518 93.9368 91.0891C94.0275 91.0296 94.1176 90.9805 94.2068 90.9418C94.2929 90.9004 94.3442 90.8702 94.3607 90.8513C94.3827 90.8261 94.3893 90.793 94.3806 90.7521L94.449 90.7119L94.8048 91.5635L94.7223 91.5913C94.7089 91.5685 94.6943 91.5503 94.6785 91.5365C94.6565 91.5173 94.6095 91.5234 94.5375 91.555C94.4624 91.5838 94.3781 91.6296 94.2846 91.6923C94.191 91.7549 94.091 91.8314 93.9846 91.9216C93.8808 92.0087 93.7864 92.1011 93.7011 92.1988C93.6022 92.3122 93.5231 92.4347 93.4639 92.5662C93.4042 92.6917 93.3702 92.823 93.3617 92.9599C93.356 93.0937 93.3798 93.2254 93.4331 93.3551C93.4833 93.4821 93.5729 93.602 93.7021 93.7147C93.8282 93.8247 93.9632 93.8925 94.1072 93.9183C94.2481 93.9413 94.3855 93.9364 94.5196 93.9035C94.6565 93.8676 94.7858 93.8084 94.9077 93.726C95.0295 93.6436 95.1358 93.5504 95.2265 93.4464C95.342 93.3141 95.4372 93.189 95.5122 93.0713C95.5899 92.9504 95.6572 92.8288 95.714 92.7063L95.4021 92.4342L94.8701 93.0439ZM97.8475 89.1482C97.8085 89.1311 97.7703 89.1273 97.733 89.1369C97.6946 89.1407 97.6574 89.1683 97.6215 89.2197L96.9527 90.1757L97.4307 90.5101L98.5849 88.8602C98.604 88.8327 98.6099 88.8062 98.6023 88.7805C98.5913 88.7524 98.5557 88.7122 98.4954 88.6598L98.5385 88.5981L99.4175 89.2129L99.3743 89.2746C99.325 89.2503 99.2904 89.2414 99.2705 89.2479C99.2506 89.2544 99.2311 89.2714 99.2119 89.2988L97.4178 91.8636L97.3561 91.8205C97.3948 91.7506 97.4121 91.704 97.408 91.6807C97.4029 91.6516 97.3883 91.6286 97.3643 91.6118L94.9691 89.9364C94.9451 89.9196 94.9203 89.915 94.8946 89.9225C94.8679 89.9242 94.8283 89.9553 94.7759 90.0156L94.7142 89.9724L96.5083 87.4076C96.5275 87.3802 96.5333 87.3536 96.5258 87.328C96.5148 87.2999 96.4826 87.262 96.4291 87.2144L96.4723 87.1527L97.3666 87.7783L97.3235 87.84C97.2604 87.8061 97.2155 87.79 97.1888 87.7918C97.1587 87.7911 97.134 87.8045 97.1148 87.8319L95.9607 89.4818L96.3873 89.7802L97.0561 88.8242C97.092 88.7728 97.1069 88.7296 97.1007 88.6947C97.0935 88.6539 97.0752 88.6181 97.0457 88.5873L97.0889 88.5256L97.8907 89.0865L97.8475 89.1482ZM101.167 85.7851C101.199 85.7118 101.212 85.6637 101.205 85.6409C101.198 85.6124 101.181 85.591 101.155 85.5766L99.1447 84.4427L99.1276 84.4475L100.699 86.6155L98.015 86.3693L98.0088 86.3802L100.052 87.5326C100.078 87.547 100.104 87.552 100.13 87.5477C100.155 87.5377 100.191 87.5002 100.237 87.4351L100.302 87.4721L99.7601 88.4337L99.6945 88.3967C99.7263 88.3234 99.739 88.2753 99.7326 88.2525C99.7247 88.224 99.7079 88.2026 99.6825 88.1882L97.1364 86.7523C97.1109 86.738 97.0857 86.7358 97.0609 86.7458C97.0345 86.7501 96.9981 86.7848 96.9518 86.8499L96.8862 86.8129L97.6904 85.3869L97.756 85.4239C97.7104 85.5133 97.7185 85.5755 97.7804 85.6104C97.784 85.6125 97.8193 85.618 97.8863 85.627C97.9533 85.6359 98.0361 85.6466 98.1347 85.659C98.2354 85.6678 98.3443 85.6788 98.4616 85.6922C98.5774 85.6998 98.6892 85.7101 98.7972 85.723C98.9035 85.7302 98.9977 85.7377 99.0797 85.7455C99.1617 85.7533 99.2167 85.7579 99.2447 85.7593C99.1412 85.6194 99.0424 85.4796 98.9483 85.3401C98.8541 85.2006 98.7668 85.0745 98.6863 84.9619C98.6078 84.8456 98.5414 84.7506 98.487 84.6767C98.4327 84.6028 98.3964 84.5608 98.3782 84.5505C98.3163 84.5156 98.2588 84.5408 98.2059 84.6262L98.1403 84.5892L98.9754 83.1085L99.0409 83.1455C99.0092 83.2188 98.9973 83.2697 99.0052 83.2982C99.0116 83.321 99.0275 83.3396 99.053 83.354L101.599 84.7899C101.625 84.8042 101.651 84.8093 101.677 84.805C101.702 84.795 101.737 84.7574 101.784 84.6924L101.849 84.7293L101.233 85.8221L101.167 85.7851ZM102.183 81.0942C102.141 81.0851 102.103 81.0888 102.068 81.1056C102.031 81.1168 102 81.1511 101.975 81.2085L101.506 82.2768L102.04 82.5113L102.85 80.6677C102.863 80.637 102.864 80.6099 102.851 80.5861C102.835 80.5607 102.792 80.5282 102.723 80.4886L102.753 80.4197L103.735 80.8509L103.705 80.9198C103.652 80.9056 103.616 80.9037 103.598 80.9139C103.58 80.9242 103.564 80.9447 103.55 80.9753L102.292 83.8413L102.223 83.811C102.247 83.7349 102.255 83.6858 102.247 83.6638C102.236 83.6362 102.217 83.6166 102.19 83.6048L99.5138 82.4297C99.487 82.418 99.4617 82.4183 99.438 82.4307C99.4122 82.4376 99.3794 82.4758 99.3398 82.5452L99.2709 82.5149L100.529 79.6489C100.543 79.6183 100.543 79.5911 100.531 79.5674C100.514 79.542 100.476 79.5112 100.414 79.4749L100.444 79.406L101.443 79.8448L101.413 79.9137C101.345 79.8928 101.298 79.8858 101.272 79.8927C101.242 79.8979 101.22 79.9158 101.207 79.9465L100.397 81.7901L100.874 81.9994L101.343 80.9311C101.368 80.8737 101.375 80.8285 101.362 80.7954C101.347 80.7568 101.322 80.7253 101.287 80.7008L101.317 80.6319L102.213 81.0253L102.183 81.0942ZM101.016 78.8741C100.988 78.8651 100.963 78.868 100.941 78.8828C100.916 78.8923 100.887 78.9336 100.855 79.0067L100.783 78.9837L101.246 77.5445L101.318 77.5676C101.3 77.6366 101.295 77.6855 101.304 77.7145C101.309 77.7383 101.322 77.7534 101.342 77.7598C101.35 77.7623 101.394 77.748 101.474 77.7167C101.555 77.6854 101.656 77.6434 101.778 77.5905C101.901 77.5376 102.038 77.4786 102.191 77.4136C102.341 77.3432 102.493 77.2735 102.647 77.2044C102.797 77.1341 102.942 77.0664 103.081 77.0014C103.217 76.9352 103.334 76.8784 103.433 76.8311L101.838 76.3183C101.771 76.2966 101.721 76.3268 101.69 76.4091L101.619 76.3861L101.97 75.2933L102.042 75.3164C102.026 75.3946 102.024 75.4468 102.038 75.4731C102.048 75.4942 102.068 75.5092 102.096 75.5182L104.878 76.4131C104.906 76.4221 104.933 76.4218 104.958 76.4123C104.98 76.3975 105.007 76.3536 105.04 76.2805L105.111 76.3035L104.746 77.4381L104.675 77.4151C104.693 77.3593 104.698 77.3216 104.691 77.3018C104.686 77.2781 104.673 77.263 104.653 77.2566C104.641 77.2527 104.625 77.2542 104.606 77.2611C104.582 77.2666 104.542 77.2822 104.485 77.308C104.429 77.3337 104.348 77.3735 104.242 77.4276C104.134 77.4763 103.992 77.5426 103.816 77.6265C103.636 77.709 103.414 77.8112 103.151 77.933C102.884 78.0536 102.56 78.1978 102.181 78.3658L104.056 78.9689C104.084 78.9778 104.111 78.9776 104.136 78.968C104.158 78.9532 104.185 78.9093 104.218 78.8362L104.289 78.8593L103.924 79.9938L103.853 79.9708C103.869 79.8926 103.872 79.843 103.861 79.8219C103.848 79.7956 103.827 79.778 103.799 79.769L101.016 78.8741ZM105.465 74.5793C105.474 74.4999 105.472 74.4502 105.459 74.4303C105.444 74.4053 105.421 74.3897 105.393 74.3833L103.103 73.8732L102.868 74.9263C102.861 74.9589 102.868 74.9861 102.889 75.0079C102.906 75.0288 102.948 75.051 103.015 75.0747L102.999 75.1481L101.909 74.9054L101.925 74.8319C101.997 74.8392 102.046 74.8374 102.074 74.8265C102.098 74.8147 102.114 74.7925 102.121 74.7599L102.795 71.7353C102.802 71.7027 102.798 71.6759 102.781 71.655C102.76 71.6333 102.716 71.6106 102.648 71.5869L102.665 71.5135L103.754 71.7562L103.738 71.8297C103.667 71.8224 103.619 71.8247 103.595 71.8364C103.567 71.8473 103.549 71.8691 103.542 71.9017L103.308 72.9548L105.597 73.4649C105.626 73.4713 105.652 73.4686 105.676 73.4568C105.697 73.44 105.72 73.3938 105.746 73.318L105.819 73.3344L105.538 74.5956L105.465 74.5793Z" fill="#DAA765"/>
</svg>
