<svg width="643" height="834" viewBox="0 0 643 834" fill="none" xmlns="http://www.w3.org/2000/svg">
<path d="M321.5 -105C607.86 -105 840 127.14 840 413.5C840 699.86 607.86 932 321.5 932C35.1404 932 -197 699.86 -197 413.5C-197 127.14 35.1404 -105 321.5 -105ZM321.502 -91.2383C42.7418 -91.2383 -183.238 134.741 -183.238 413.501C-183.238 692.261 42.7417 918.241 321.502 918.241C600.262 918.241 826.242 692.261 826.242 413.501C826.242 134.741 600.262 -91.2383 321.502 -91.2383ZM319.627 904.479L303.991 905.104L289.605 888.843V871.33L319.627 904.479ZM352.149 888.842L337.764 905.104L322.128 904.479L352.149 871.329V888.842ZM366.316 815.816L412.6 855.846L413.092 856.271L412.647 856.746L367.614 904.905L367.43 905.104H359.652V815.664H366.14L366.316 815.816ZM298.987 904.481L289.605 903.855V894.474L298.987 904.481ZM352.149 903.854L342.768 904.48L352.149 894.473V903.854ZM281.347 814.562L279.786 903.987L272.01 903.852L271.829 903.649L227.643 854.712L227.207 854.229L227.706 853.812L274.682 814.598L274.86 814.448L281.347 814.562ZM442.213 851.939L395.304 902.602H380.293L423.449 855.066L372.788 815.038L394.053 814.412L442.213 851.939ZM268.226 813.706L216.872 852.844L259.192 901.124L244.184 900.862L198.166 849.391L246.974 812.709L268.226 813.706ZM470.986 846.936L425.328 897.598H410.317L452.223 850.062L402.812 811.285L422.826 809.408L470.986 846.936ZM238.273 809.435L188.194 847.344L229.264 895.604L214.255 895.341L169.488 843.89L218.295 807.209L238.273 809.435ZM484.115 858.193L460.348 886.339L440.959 893.219L475.984 851.939L484.115 858.193ZM353.397 856.942L322.125 892.594L292.104 859.444V854.44L320.874 825.67L353.397 856.942ZM198.696 890.684L179.431 883.467L156.158 854.912L164.396 848.8L198.696 890.684ZM368.406 888.549L369.488 887.391L396.383 858.62L396.854 858.116L396.307 857.697L369.412 837.057L368.406 836.285V888.549ZM271.215 835.782L243.965 855.95L243.41 856.359L243.872 856.872L270.261 886.107L271.322 887.284L272.234 835.028L271.215 835.782ZM499.13 870.082L492.875 875.711L468.482 884.468L489.748 863.202L499.13 870.082ZM171.332 881.451L147.096 872.271L140.941 866.533L150.441 859.817L171.332 881.451ZM303.987 858.195L322.125 876.333L340.264 856.944L320.874 838.181L303.987 858.195ZM524.145 863.826L512.887 868.83L432.203 806.284L444.087 802.532L524.145 863.826ZM330.257 858.195L321.501 866.951L313.37 858.195L321.501 848.813L330.257 858.195ZM208.97 803.917L127.208 865.044L116.038 859.845L197.153 799.957L208.97 803.917ZM561.046 748.742C558.961 759.792 554.041 785.895 551.039 801.906C548.037 817.918 540.614 845.27 537.278 856.945L529.147 857.571L541.031 806.909L501.628 792.524L495.999 820.669L515.388 833.804L520.392 820.669L505.381 816.291L507.257 801.906L532.275 811.288L520.392 851.942L479.737 822.546L489.119 788.146L504.13 781.892L543.533 795.025L548.537 755.622L561.046 748.742ZM93.5381 751.233L97.8535 790.719L137.479 778.273L152.379 784.789L161.159 819.348L119.998 848.029L108.825 807.174L134.004 798.23L135.629 812.646L120.544 816.762L125.316 829.982L144.933 817.188L139.796 788.948L100.147 802.645L111.145 853.505L103.025 852.738C99.894 841.007 92.9509 813.527 90.2285 797.466C87.5063 781.405 83.0431 755.221 81.1514 744.137L93.5381 751.233ZM639.229 736.232L688.641 736.858L681.136 746.24H639.229L637.354 789.396L626.721 800.654L628.598 747.491H579.812L571.056 800.029L604.83 801.905V793.774L582.939 790.021L586.692 754.996H619.216L615.463 808.16L607.332 815.665L568.554 811.287L562.925 845.062L551.041 851.941V849.439L570.431 743.113L574.183 738.109L629.223 736.858V706.211H638.604L639.229 736.232ZM13.7275 700.418L13.1934 731.061L68.2031 733.272L71.8682 738.34L89.3984 844.989L89.3545 847.491L77.5928 840.404L72.5537 806.537L33.7051 810.237L25.7061 802.592L22.8818 749.37L55.4004 749.938L58.541 785.023L36.5889 788.394L36.4463 796.523L70.249 795.237L62.4111 742.555L13.6328 741.703L14.5811 794.891L4.14648 783.449L3.02441 740.267L-38.875 739.535L-46.2158 730.024L3.19824 730.261L4.34766 700.255L13.7275 700.418ZM289.605 843.188V831.304L301.489 818.169H312.747L289.605 843.188ZM352.149 831.303V843.187L329.008 818.168H340.266L352.149 831.303ZM591.07 822.545L579.812 831.927C576.81 834.428 572.307 838.807 570.431 840.684L571.056 838.182L573.558 820.669L591.07 822.545ZM69.583 833.384L70.165 835.896C68.3218 833.988 63.8955 829.531 60.9375 826.978L49.8438 817.4L67.3867 815.83L69.583 833.384ZM289.605 823.795V817.54H296.485L289.605 823.795ZM352.149 823.794L345.27 817.539H352.149V823.794ZM474.111 815.668L453.471 800.032L477.238 790.65L474.111 815.668ZM187.816 797.29L166.907 812.564L164.218 787.495L187.816 797.29ZM321.499 23.8408C536.7 23.841 711.155 198.297 711.155 413.498C711.155 628.699 536.7 803.154 321.499 803.154C106.298 803.154 -68.158 628.699 -68.1582 413.498C-68.1581 198.297 106.298 23.8409 321.499 23.8408ZM321.499 38.0117C114.123 38.012 -53.9882 206.124 -53.9883 413.5C-53.9881 620.876 114.123 788.987 321.499 788.987C528.875 788.987 696.987 620.876 696.987 413.5C696.987 206.124 528.875 38.0117 321.499 38.0117ZM657.365 770.009L643.605 784.395V768.758L657.365 770.009ZM538.532 783.769L511.638 776.889L539.783 762.503L538.532 783.769ZM594.196 780.015L607.956 780.641V766.255H594.821L594.196 780.015ZM130.061 773.141L103.05 779.55L102.17 758.267L130.061 773.141ZM-2.01953 778.339L-15.5254 763.715L-1.74609 762.704L-2.01953 778.339ZM33.6924 775.21L47.4619 774.824L47.0762 761.056L33.9434 760.826L33.6924 775.21ZM661.743 766.256V752.496H676.129L661.743 766.256ZM655.489 764.38H642.98V751.871H655.489V764.38ZM-19.5977 746.129L-19.8379 759.887L-33.9805 745.878L-19.5977 746.129ZM-0.825195 745.831L-1.04395 758.338L-13.5518 758.12L-13.333 745.613L-0.825195 745.831ZM725.542 689.947L699.272 696.827L701.149 722.471L692.393 732.478L688.015 688.07L730.545 679.939L725.542 689.947ZM744.931 663.678C736.8 666.596 716.661 672.935 701.149 674.937C685.638 676.938 680.092 677.438 679.258 677.438L683.011 728.1L674.255 729.351L669.251 678.689L633.601 679.939L639.854 671.184L666.749 669.308L664.247 640.536L669.251 629.903L693.644 623.649L694.895 634.907L674.255 638.66L676.757 669.308C685.93 668.057 706.778 664.804 716.785 661.802C726.792 658.8 731.379 657.632 732.422 657.424L711.781 608.639L675.506 619.271L681.76 610.515L716.785 598.006L744.931 663.678ZM660.494 698.703H622.968L620.466 701.205V728.1H586.691L601.076 714.965L602.327 718.093H611.084V710.587L605.455 712.464L625.47 689.947H660.494V698.703ZM662.371 728.1H647.36V707.46H662.371V728.1ZM-46.8926 677.439L-49.8896 725.583L-60.8193 718.095L-57.4277 685.57L-85.0723 679.286L-89.9004 669.192L-46.8926 677.439ZM17.7646 684.227L37.3838 707.089L31.7881 705.114L31.6572 712.619L40.4131 712.771L41.7178 709.667L55.8721 723.05L22.1025 722.46L22.5713 695.57L20.1143 693.025L-17.4082 692.371L-17.2549 683.615L17.7646 684.227ZM-42.5137 595.506L-36.2598 604.887L-67.1152 601.424L-88.3896 647.304C-87.3504 647.531 -82.7843 648.779 -72.832 651.955C-62.8785 655.131 -42.0904 658.746 -32.9404 660.157L-29.3799 629.28L-49.9512 625.167L-48.5049 613.934L-24.2236 620.612L-19.4072 631.33L-22.9346 660.332L3.92285 662.678L10.0234 671.541L-25.5996 669.669L-31.7002 722.772L-40.4326 721.369L-35.584 668.243C-36.4192 668.228 -41.9564 667.631 -57.4277 665.359C-72.9014 663.088 -92.9269 656.399 -101.006 653.339L-69.4092 588.625L-42.5137 595.506ZM-4.42773 701.354L-4.78809 721.991L-19.7969 721.729L-19.4365 701.093L-4.42773 701.354ZM709.28 712.464L708.029 702.456L718.036 701.205L709.28 712.464ZM-65.6562 693.025L-67.5332 706.211L-77.5166 691.6L-65.6562 693.025ZM660.495 662.429H647.36L656.117 649.92L660.495 662.429ZM708.654 622.398L716.785 651.795L683.011 657.424V648.667L704.901 645.54L704.276 643.664L699.272 621.772L708.654 622.398ZM-3.64355 656.327L-16.7764 656.098L-12.1807 643.667L-3.64355 656.327ZM783.712 576.741L735.552 598.632L753.689 642.413L748.061 651.795L724.294 593.003L786.839 564.231L783.712 576.741ZM-60.1621 633.913L-60.8193 635.778L-38.9863 639.287V648.166L-72.6572 641.948L-64.2275 615.236L-54.8369 614.775L-60.1621 633.913ZM-109.438 532.959L-128.828 566.734L-78.166 582.37L-104.14 643.939L-109.604 634.461L-90.6748 587.999L-140.086 571.111L-120.696 537.963L-153.22 519.199L-158.224 503.562L-109.438 532.959ZM759.942 629.908L752.437 618.024L766.822 616.148L759.942 629.908ZM-107.719 612.112L-115.069 624.9L-122.885 610.774L-107.719 612.112ZM770.577 603.636L749.938 610.516L746.185 603.636L776.832 591.752L770.577 603.636ZM-102.146 594.787L-106.018 601.601L-126.951 596.756L-136.333 585.497L-102.146 594.787ZM747.434 574.243L688.016 598.636L689.267 589.254L734.299 571.741L709.28 532.963L712.408 521.08L747.434 574.243ZM-73.1641 506.689L-99.1387 556.626L-51.1572 573.02L-47.5205 584.245L-113.818 561.104L-77.541 488.552L-73.1641 506.689ZM719.913 566.112L694.896 576.119L704.902 546.724L719.913 566.112ZM751.186 539.843L798.721 507.319V519.829L755.564 548.6L764.946 562.985L754.938 566.112L716.161 508.57L724.917 501.065L751.186 539.843ZM-55.0264 561.104L-89.4258 551.723L-70.6621 521.075L-55.0264 561.104ZM795.593 538.593C794.342 542.137 791.465 549.6 789.964 551.102L771.826 559.232L766.822 552.978L795.593 538.593ZM-131.952 539.84L-146.337 556.102L-149.464 534.84L-131.952 539.84ZM761.054 476.275L785.446 506.297L785.86 506.807L785.331 507.195L754.685 529.712L754.187 530.077L753.814 529.585L732.55 501.439L732.201 500.979L732.634 500.595L760.153 476.202L760.642 475.769L761.054 476.275ZM-120.906 437.43L-79.626 474.331L-79.2158 474.698L-79.5283 475.152L-111.427 521.436L-111.771 521.937L-112.282 521.605L-160.441 490.333L-160.706 490.161L-160.726 489.847L-161.351 479.84L-161.368 479.569L-161.183 479.372L-121.778 437.467L-121.361 437.022L-120.906 437.43ZM759.542 494.325L748.909 503.081L748.448 503.461L748.807 503.939L756.312 513.946L756.693 514.456L757.196 514.065L768.454 505.309L768.959 504.916L768.556 504.421L760.425 494.413L760.028 493.925L759.542 494.325ZM801.223 492.309L796.844 504.818L762.444 466.665L724.917 496.687L719.913 498.563L722.415 482.302L763.695 449.152L801.223 492.309ZM-121.783 453.737L-147.427 481.882L-147.91 482.412L-147.319 482.819L-117.298 503.459L-116.807 503.796L-116.445 503.322L-96.4316 477.054L-96.0859 476.601L-96.5049 476.215L-120.897 453.698L-121.359 453.271L-121.783 453.737ZM-108.185 478.55L-120.067 491.059L-134.453 480.426L-121.318 466.666L-108.185 478.55ZM805.601 470.418L803.724 484.804L766.822 439.771L722.415 476.047L724.917 460.411L766.822 424.135L805.601 470.418ZM-79.415 451.028V465.414L-120.695 427.261L-162.601 469.792L-163.852 456.657L-122.571 411.625L-79.415 451.028ZM806.852 397.865L788.088 419.131L808.728 444.149V455.407L773.077 417.255L806.852 383.48V397.865ZM756.815 419.131L724.917 447.901V437.269L743.055 419.131L724.917 400.367L726.793 388.483L756.815 419.131ZM-130.077 410.374L-163.852 444.148V429.763L-145.088 408.497L-165.728 383.479V372.222L-130.077 410.374ZM-81.917 390.359L-100.055 408.497L-81.917 427.261L-83.793 439.145L-113.815 408.497L-81.917 379.727V390.359ZM809.979 429.764L799.346 420.382L809.979 411.625V429.764ZM733.673 419.131L724.917 426.011V410.375L733.673 419.131ZM-81.917 417.254L-90.6729 408.497L-81.917 401.617V417.254ZM806.852 370.971L765.571 416.004L722.415 376.601V362.215L763.695 400.367L805.601 357.837L806.852 370.971ZM-156.346 407.247L-166.979 416.003V397.865L-156.346 407.247ZM-123.822 387.857L-79.415 351.581L-81.917 367.218L-123.822 403.494L-162.601 357.21L-160.724 342.825L-123.822 387.857ZM755.282 306.021L803.441 337.293L803.706 337.465L803.726 337.779L804.351 347.786L804.368 348.057L804.183 348.254L764.778 390.159L764.361 390.604L763.906 390.196L722.626 353.295L722.216 352.928L722.528 352.474L754.427 306.19L754.771 305.689L755.282 306.021ZM-119.444 360.963L-81.917 330.941L-76.9131 329.065L-79.415 345.327L-120.695 378.476L-158.223 335.319L-153.844 322.811L-119.444 360.963ZM759.445 324.305L739.432 350.573L739.086 351.026L739.505 351.412L763.897 373.929L764.359 374.355L764.783 373.89L790.427 345.745L790.91 345.215L790.319 344.808L760.298 324.168L759.807 323.831L759.445 324.305ZM777.453 347.204L764.318 360.964L751.185 349.08L763.067 336.571L777.453 347.204ZM-110.813 298.042L-89.5488 326.188L-89.2002 326.648L-89.6328 327.032L-117.152 351.425L-117.641 351.858L-118.053 351.352L-142.445 321.33L-142.859 320.82L-142.33 320.432L-111.684 297.915L-111.186 297.55L-110.813 298.042ZM756.818 266.52L720.543 339.071L716.164 320.934L742.14 270.997L694.157 254.604L690.521 243.377L756.818 266.52ZM-114.201 313.557L-125.459 322.313L-125.964 322.706L-125.561 323.201L-117.43 333.209L-117.033 333.697L-116.547 333.297L-105.914 324.541L-105.453 324.161L-105.812 323.683L-113.316 313.676L-113.698 313.166L-114.201 313.557ZM-73.1611 319.058L-81.917 326.563L-108.186 287.785L-155.721 320.309V307.8L-112.564 279.029L-121.946 264.644L-111.938 261.517L-73.1611 319.058ZM752.604 193.162L733.675 239.624L783.086 256.512L763.696 289.66L796.221 308.424L801.225 324.06L752.438 294.664L771.828 260.889L721.166 245.253L747.14 183.684L752.604 193.162ZM-46.2666 238.374L-91.2988 255.887L-66.2803 294.665L-69.4082 306.549L-104.434 253.386L-45.0156 228.993L-46.2666 238.374ZM732.426 275.9L713.662 306.548L698.026 266.519L732.426 275.9ZM792.465 292.783L774.952 287.783L789.338 271.521L792.465 292.783ZM-123.822 274.65L-152.593 289.036C-151.342 285.492 -148.465 278.029 -146.964 276.527L-128.826 268.396L-123.822 274.65ZM-61.9023 280.905L-76.9131 261.517L-51.8955 251.509L-61.9023 280.905ZM-81.2939 234.62L-143.839 263.391L-140.712 250.882L-92.5518 228.991L-110.689 185.209L-105.061 175.827L-81.2939 234.62ZM769.951 230.867L779.333 242.125L745.146 232.836L749.018 226.022L769.951 230.867ZM683.437 106.254L678.586 159.38C679.42 159.394 684.956 159.992 700.43 162.264C715.903 164.535 735.93 171.224 744.009 174.284L712.412 238.998L685.518 232.117L679.263 222.736L710.117 226.199L731.393 180.319C730.353 180.092 725.787 178.844 715.835 175.668C705.882 172.492 685.094 168.877 675.943 167.466L672.383 198.343L692.954 202.455L691.507 213.69L667.227 207.011L662.409 196.293L665.938 167.291L639.08 164.946L632.979 156.081L668.603 157.954L674.702 104.851L683.437 106.254ZM-103.185 223.987L-133.832 235.871L-127.577 223.987L-106.938 217.107L-103.185 223.987ZM-26.251 148.934L9.40039 147.683L3.14551 156.438L-23.749 158.315L-21.2471 187.086L-26.251 197.719L-50.6436 203.974L-51.8945 192.715L-31.2539 188.963L-33.7559 158.315C-42.9292 159.566 -63.778 162.818 -73.7852 165.82C-83.7908 168.822 -88.3776 169.99 -89.4209 170.199L-68.7812 218.984L-32.5049 208.352L-38.7598 217.107L-73.7852 229.617L-101.931 163.944C-93.7997 161.026 -73.6596 154.688 -58.1484 152.687C-42.6381 150.685 -37.0921 150.185 -36.2578 150.185L-40.0107 99.5225L-31.2539 98.2715L-26.251 148.934ZM765.885 216.849L750.72 215.511L758.069 202.723L765.885 216.849ZM715.66 185.675L707.231 212.387L697.84 212.848L703.164 193.711L703.822 191.845L681.989 188.336V179.457L715.66 185.675ZM-109.437 209.604L-123.822 211.48L-116.942 197.72L-109.437 209.604ZM-40.0107 178.955L-61.9014 182.082L-61.2764 183.959L-56.2725 205.85L-65.6543 205.225L-73.7852 175.828L-40.0107 170.199V178.955ZM659.775 171.524L655.181 183.955L646.645 171.295L659.775 171.524ZM-13.1162 177.703L-17.4951 165.194H-4.36035L-13.1162 177.703ZM703.822 109.529L700.431 142.053L728.075 148.337L732.903 158.431L689.896 150.184L692.893 102.041L703.822 109.529ZM-45.0146 139.552L-87.5449 147.683L-82.541 137.676L-56.2725 130.795L-58.1484 105.151L-49.3926 95.1445L-45.0146 139.552ZM620.899 105.163L620.431 132.053L622.889 134.599L660.41 135.253L660.257 144.008L625.237 143.396L605.618 120.534L611.215 122.509L611.346 115.004L602.59 114.852L601.285 117.956L587.131 104.573L620.899 105.163ZM41.9238 112.657L40.6729 109.53H31.916V117.035L37.5459 115.159L17.5312 137.676H-17.4941V128.919H20.0332L22.5342 126.417V99.5225H56.3086L41.9238 112.657ZM720.519 136.023L708.659 134.599L710.535 121.413L720.519 136.023ZM565.408 -12.7822L570.446 21.085L609.295 17.3848L617.294 25.0303L620.118 78.251L587.6 77.6836L584.459 42.5986L606.411 39.2275L606.554 31.0986L572.752 32.3848L580.589 85.0674L629.368 85.9189L628.419 32.7314L638.854 44.1729L639.977 87.3555L681.875 88.0869L689.216 97.5977L639.802 97.3613L638.652 127.367L629.272 127.204L629.807 96.5605L574.797 94.3496L571.132 89.2822L553.603 -17.3672L553.646 -19.8691L565.408 -12.7822ZM662.799 105.895L662.438 126.53L647.43 126.269L647.79 105.632L662.799 105.895ZM-65.0283 125.166L-75.0361 126.417L-66.2793 115.159L-65.0283 125.166ZM91.959 -21.8164L72.5703 84.5107L68.8174 89.5137L13.7773 90.7646V121.412H4.39551L3.77051 91.3906L-45.6406 90.7646L-38.1348 81.3828H3.77051L5.64648 38.2266L16.2793 26.9688L14.4023 80.1318H63.1885L71.9443 27.5938L36.9189 23.8418V38.2266L58.8096 40.1035L56.3076 72.627H23.7842L27.5371 19.4629L35.668 11.958L74.4463 16.3359L80.0752 -17.4385L91.959 -24.3184V-21.8164ZM-4.35938 120.163H-19.3711V99.5225H-4.35938V120.163ZM539.974 -25.1104C543.105 -13.3789 550.048 14.0996 552.771 30.1611C555.493 46.2225 559.957 72.4066 561.849 83.4912L549.461 76.3936L545.146 36.9092L505.52 49.3545L490.62 42.8389L481.84 8.2793L523.001 -20.4023L534.174 20.4531L508.996 29.3975L507.37 14.9814L522.455 10.8662L517.683 -2.35449L498.066 10.4404L503.204 38.6797L542.853 24.9834L531.854 -25.877L539.974 -25.1104ZM656.551 69.5029L656.333 82.0107L643.826 81.793L644.044 69.2852L656.551 69.5029ZM676.98 81.7451L662.598 81.4941L662.838 67.7363L676.98 81.7451ZM101.968 20.7139L143.248 35.7246L151.379 6.9541L127.611 -9.30762L124.484 6.9541L140.746 13.208L138.244 21.3389L113.227 11.957L122.608 -24.3184L163.263 5.07715L153.881 39.4775L138.87 45.7314L99.4658 32.5977L91.9609 72.626L81.9531 78.8809C84.038 67.8312 88.9588 41.7293 91.9609 25.7178C94.9631 9.7065 102.385 -17.6468 105.721 -29.3223L113.852 -29.9482L101.968 20.7139ZM0.0195312 75.7529H-12.4893V63.2441H0.0195312V75.7529ZM-18.7441 75.127H-33.1299L-18.7441 61.3672V75.127ZM540.829 69.3613L512.938 54.4873L539.949 48.0781L540.829 69.3613ZM595.538 52.8057L595.923 66.5742L609.056 66.8037L609.307 52.4199L595.538 52.8057ZM131.363 50.7354L103.218 65.1201L104.469 43.8545L131.363 50.7354ZM658.525 63.9082L644.745 64.918L645.019 49.2852L658.525 63.9082ZM35.0439 63.2422L49.4297 64.4932L51.9316 46.9805L36.2949 45.1045L35.0439 63.2422ZM-0.606445 58.8652L-14.3662 57.6143L-0.606445 43.2295V58.8652ZM478.782 40.127L455.184 30.3311L476.093 15.0586L478.782 40.127ZM189.529 27.5967L165.762 36.9785L168.89 11.96L189.529 27.5967ZM526.961 -32.2178L445.846 27.6709L434.029 23.7109L515.792 -37.416L526.961 -32.2178ZM210.797 21.3438L198.913 25.0957L118.855 -36.1982L130.113 -41.2021L210.797 21.3438ZM428.745 -67.7119L473.512 -16.2617L424.704 20.4189L404.727 18.1943L454.806 -19.7158L413.736 -67.9746L428.745 -67.7119ZM190.777 -22.4395L240.188 16.3389L220.174 18.2148L172.014 -19.3125L217.672 -69.9736H232.683L190.777 -22.4395ZM398.812 -73.2441L444.83 -21.7715L396.022 14.9092L374.772 13.9131L426.124 -25.2266L383.804 -73.5059L398.812 -73.2441ZM219.551 -27.4434L270.213 12.5859L248.947 13.2109L200.787 -24.3164L247.696 -74.9775H262.707L219.551 -27.4434ZM370.989 -76.2295L371.171 -76.0283L415.356 -27.0898L415.792 -26.6064L415.293 -26.1904L368.318 13.0244L368.139 13.1738L361.652 13.0605L363.213 -76.3652L370.989 -76.2295ZM283.348 11.959H276.86L276.684 11.8066L230.4 -28.2227L229.908 -28.6475L230.353 -29.123L275.386 -77.2822L275.57 -77.4805H283.348V11.959ZM572.835 -8.27441C574.678 -6.36568 579.104 -1.90934 582.062 0.644531L593.156 10.2217L575.613 11.792L573.417 -5.76172L572.835 -8.27441ZM353.395 10.0791H346.515L353.395 3.82422V10.0791ZM297.73 10.0781H290.851V3.82324L297.73 10.0781ZM353.395 -3.67773L341.511 9.45703H330.253L353.395 -15.5605V-3.67773ZM313.992 9.45605H302.734L290.851 -3.67871V-15.5615L313.992 9.45605ZM71.9443 -10.5586L69.4424 6.9541L51.9297 5.07812L63.1885 -4.30371C66.1904 -6.80537 70.6938 -11.184 72.5703 -13.0605L71.9443 -10.5586ZM350.896 -31.8223V-26.8184L322.126 1.95215L289.603 -29.3203L320.875 -64.9717L350.896 -31.8223ZM370.765 -7.40723L371.784 -8.16113L399.034 -28.3291L399.589 -28.7383L399.127 -29.251L372.738 -58.4863L371.677 -59.6631L370.765 -7.40723ZM273.512 -59.7734L246.617 -31.0029L246.146 -30.499L246.693 -30.0801L273.588 -9.43945L274.594 -8.66797V-60.9316L273.512 -59.7734ZM302.736 -29.3203L322.126 -10.5566L339.013 -30.5713L320.875 -48.709L302.736 -29.3203ZM463.569 -55.8496L486.842 -27.2939L478.603 -21.1826L444.303 -63.0674L463.569 -55.8496ZM329.63 -30.5732L321.499 -21.1914L312.743 -30.5732L321.499 -39.3301L329.63 -30.5732ZM167.016 -24.3154L158.885 -30.5703L182.652 -58.7158L202.041 -65.5957L167.016 -24.3154ZM495.904 -44.6484L502.06 -38.9111L492.559 -32.1953L471.668 -53.8291L495.904 -44.6484ZM153.252 -35.5781L143.87 -42.458L150.125 -48.0869L174.518 -56.8438L153.252 -35.5781ZM353.395 -61.2168V-43.7041L323.373 -76.8535L339.009 -77.4785L353.395 -61.2168ZM320.872 -76.8545L290.851 -43.7051V-61.2178L305.236 -77.4795L320.872 -76.8545ZM353.395 -76.2285V-66.8467L344.013 -76.8545L353.395 -76.2285ZM290.851 -66.8486V-76.2305L300.232 -76.8555L290.851 -66.8486Z" fill="#DAA765" fill-opacity="0.37"/>
</svg>
